<svg xmlns="http://www.w3.org/2000/svg" xmlns:xlink="http://www.w3.org/1999/xlink" width="1080" zoomAndPan="magnify" viewBox="0 0 810 809.999993" height="1080" preserveAspectRatio="xMidYMid meet" version="1.2"><defs><clipPath id="9bed990397"><path d="M 211.320312 235.53125 L 598.320312 235.53125 L 598.320312 574.527344 L 211.320312 574.527344 Z M 211.320312 235.53125 "/></clipPath></defs><g id="778f839d83"><path style=" stroke:none;fill-rule:nonzero;fill:#d9d9d9;fill-opacity:1;" d="M 558.144531 378.507812 L 251.847656 378.507812 C 239.207031 378.507812 228.945312 388.773438 228.945312 401.410156 L 228.945312 533.496094 C 228.945312 546.136719 239.207031 556.398438 251.847656 556.398438 L 558.144531 556.398438 C 570.78125 556.398438 581.046875 546.136719 581.046875 533.496094 L 581.046875 401.410156 C 581.046875 388.773438 570.78125 378.507812 558.144531 378.507812 Z M 577.316406 533.496094 C 577.316406 544.054688 568.699219 552.671875 558.144531 552.671875 L 251.847656 552.671875 C 241.289062 552.671875 232.671875 544.054688 232.671875 533.496094 L 232.671875 401.410156 C 232.671875 390.855469 241.289062 382.238281 251.847656 382.238281 L 558.144531 382.238281 C 568.699219 382.238281 577.316406 390.855469 577.316406 401.410156 Z M 577.316406 533.496094 "/><g clip-rule="nonzero" clip-path="url(#9bed990397)"><path style=" stroke:none;fill-rule:nonzero;fill:#d9d9d9;fill-opacity:1;" d="M 575.769531 360.882812 L 519.457031 360.882812 L 416.421875 257.847656 C 417.824219 255.574219 418.648438 252.957031 418.648438 250.246094 C 418.648438 242.355469 412.210938 235.914062 404.269531 235.914062 C 396.375 235.914062 389.9375 242.355469 389.9375 250.246094 C 389.9375 253.296875 390.953125 256.203125 392.695312 258.625 L 290.53125 360.882812 L 234.222656 360.882812 C 221.585938 360.882812 211.320312 371.148438 211.320312 383.785156 L 211.320312 551.171875 C 211.320312 563.808594 221.585938 574.074219 234.222656 574.074219 L 575.769531 574.074219 C 588.40625 574.074219 598.671875 563.808594 598.671875 551.171875 L 598.671875 383.785156 C 598.671875 371.148438 588.40625 360.882812 575.769531 360.882812 Z M 404.269531 239.644531 C 410.128906 239.644531 414.921875 244.386719 414.921875 250.246094 C 414.921875 252.667969 414.097656 255.039062 412.597656 256.878906 C 408.675781 261.722656 400.832031 262.011719 396.570312 257.511719 C 394.730469 255.523438 393.664062 252.910156 393.664062 250.199219 C 393.664062 244.386719 398.457031 239.644531 404.269531 239.644531 Z M 395.3125 261.335938 C 397.878906 263.417969 400.976562 264.578125 404.316406 264.578125 C 407.996094 264.578125 411.386719 263.125 414.050781 260.65625 L 514.226562 360.835938 L 295.808594 360.835938 Z M 594.941406 551.171875 C 594.941406 561.726562 586.324219 570.34375 575.769531 570.34375 L 234.222656 570.34375 C 223.667969 570.34375 215.046875 561.726562 215.046875 551.171875 L 215.046875 383.785156 C 215.046875 373.230469 223.667969 364.613281 234.222656 364.613281 L 575.769531 364.613281 C 586.324219 364.613281 594.941406 373.230469 594.941406 383.785156 Z M 594.941406 551.171875 "/></g></g></svg>