<svg xmlns="http://www.w3.org/2000/svg" xmlns:xlink="http://www.w3.org/1999/xlink" width="1080" zoomAndPan="magnify" viewBox="0 0 810 809.999993" height="1080" preserveAspectRatio="xMidYMid meet" version="1.2"><defs><clipPath id="68566288e4"><path d="M 205 237 L 605.554688 237 L 605.554688 577.15625 L 205 577.15625 Z M 205 237 "/></clipPath></defs><g id="34146b945f"><g clip-rule="nonzero" clip-path="url(#68566288e4)"><path style=" stroke:none;fill-rule:nonzero;fill:#6590b4;fill-opacity:1;" d="M 603.769531 391.746094 C 602.558594 390.539062 600.914062 389.855469 599.203125 389.855469 L 519.671875 389.855469 C 489.488281 389.855469 485.453125 386.859375 466.058594 372.453125 C 461.925781 369.382812 457.242188 365.902344 451.527344 361.859375 C 438.25 352.464844 423.90625 345.519531 408.792969 341.128906 L 435.507812 294.859375 C 440.085938 286.929688 441.296875 277.671875 438.917969 268.792969 C 436.539062 259.914062 430.859375 252.503906 422.929688 247.925781 L 413.265625 242.34375 C 396.855469 232.871094 375.800781 238.515625 366.328125 254.921875 L 312.09375 348.859375 C 305.300781 352.042969 298.671875 355.800781 292.359375 360.050781 L 259.03125 382.515625 C 246.300781 391.09375 237.59375 401.679688 231.632812 415.824219 L 207.28125 473.578125 C 204.320312 480.605469 204.710938 489.179688 208.355469 497.109375 C 211.621094 504.210938 217.183594 510.050781 223.71875 513.421875 L 223.71875 570.621094 C 223.71875 572.929688 224.953125 575.0625 226.949219 576.214844 C 227.949219 576.789062 229.0625 577.078125 230.179688 577.078125 C 231.292969 577.078125 232.40625 576.792969 233.40625 576.214844 L 291.402344 542.730469 C 292.382812 542.164062 293.199219 541.351562 293.765625 540.367188 L 300.777344 528.222656 C 302.773438 541.011719 313.863281 550.832031 327.207031 550.832031 C 335.320312 550.832031 342.601562 547.203125 347.511719 541.484375 C 347.953125 541.996094 348.417969 542.496094 348.902344 542.980469 C 353.964844 548.042969 360.675781 550.832031 367.800781 550.832031 C 376.101562 550.832031 383.890625 546.847656 388.898438 540.453125 C 402.910156 548.546875 418.703125 553.925781 440.355469 553.925781 C 440.417969 553.925781 440.488281 553.925781 440.550781 553.925781 L 599.203125 553.808594 C 602.769531 553.808594 605.660156 550.917969 605.660156 547.351562 L 605.660156 396.3125 C 605.660156 394.601562 604.980469 392.957031 603.769531 391.746094 Z M 377.515625 261.378906 C 383.425781 251.140625 396.566406 247.617188 406.808594 253.527344 L 416.472656 259.109375 C 421.417969 261.964844 424.957031 266.589844 426.445312 272.136719 C 427.929688 277.683594 427.175781 283.460938 424.324219 288.402344 L 342.589844 429.96875 C 342.195312 429.765625 341.796875 429.558594 341.402344 429.355469 C 326.808594 421.8125 311.71875 414.027344 292.605469 408.445312 Z M 219.183594 478.597656 L 243.53125 420.839844 C 248.476562 409.113281 255.695312 400.335938 266.25 393.222656 L 299.367188 370.902344 L 278.535156 406.988281 C 273.914062 407.488281 269.398438 408.945312 265.238281 411.347656 C 257.398438 415.875 251.796875 423.15625 249.464844 431.851562 C 247.386719 439.605469 248.199219 447.460938 251.226562 454.285156 L 225.40625 499.003906 C 223.230469 497.03125 221.386719 494.542969 220.089844 491.714844 C 217.953125 487.070312 217.625 482.289062 219.183594 478.597656 Z M 236.636719 514.839844 L 275.257812 537.140625 L 236.636719 559.4375 Z M 285.808594 528.320312 L 239 501.292969 L 259.527344 465.738281 C 263.355469 469.195312 268.023438 471.828125 273.335938 473.257812 C 287.328125 477.207031 299.261719 481.851562 309.726562 486.886719 Z M 327.207031 537.917969 C 319.578125 537.917969 313.367188 531.707031 313.367188 524.078125 L 313.367188 506.410156 L 321.195312 492.859375 C 328.472656 496.949219 335.003906 501.203125 341.046875 505.480469 L 341.046875 522.957031 C 341.046875 523.144531 341.058594 523.328125 341.074219 523.511719 C 341.058594 523.699219 341.046875 523.886719 341.046875 524.078125 C 341.046875 531.707031 334.839844 537.917969 327.207031 537.917969 Z M 367.800781 537.917969 C 364.128906 537.917969 360.65625 536.472656 358.03125 533.847656 C 355.40625 531.222656 353.960938 527.753906 353.960938 524.078125 C 353.960938 523.890625 353.949219 523.703125 353.933594 523.519531 C 353.949219 523.332031 353.960938 523.144531 353.960938 522.953125 L 353.960938 515.101562 C 356.179688 516.816406 358.347656 518.519531 360.488281 520.199219 C 366.40625 524.847656 372.117188 529.328125 377.960938 533.425781 C 375.375 536.21875 371.695312 537.917969 367.800781 537.917969 Z M 440.53125 541.011719 C 440.472656 541.011719 440.417969 541.011719 440.359375 541.011719 C 407.910156 541.011719 390.496094 527.339844 368.464844 510.039062 C 346.691406 492.941406 322.007812 473.5625 276.800781 460.816406 C 276.773438 460.808594 276.746094 460.800781 276.71875 460.792969 C 271.386719 459.363281 266.898438 455.894531 264.085938 451.023438 C 261.273438 446.152344 260.511719 440.53125 261.941406 435.195312 C 263.378906 429.832031 266.839844 425.332031 271.695312 422.53125 C 276.539062 419.734375 282.148438 418.980469 287.5 420.40625 C 306.121094 425.660156 321.042969 433.371094 335.46875 440.828125 C 356.886719 451.898438 379.035156 463.34375 412.140625 465.882812 C 415.695312 466.160156 418.796875 463.496094 419.070312 459.9375 C 419.34375 456.382812 416.683594 453.28125 413.125 453.007812 C 388.757812 451.136719 371.070312 444.148438 354.121094 435.820312 L 402.125 352.679688 C 416.984375 356.589844 431.074219 363.207031 444.066406 372.402344 C 449.660156 376.359375 454.28125 379.792969 458.359375 382.820312 C 477.398438 396.960938 484.1875 401.988281 512.195312 402.683594 L 512.195312 540.902344 Z M 592.746094 540.894531 L 525.109375 540.894531 L 525.109375 402.773438 L 592.746094 402.773438 Z M 592.746094 540.894531 "/></g></g></svg>