<svg xmlns="http://www.w3.org/2000/svg" xmlns:xlink="http://www.w3.org/1999/xlink" width="1080" zoomAndPan="magnify" viewBox="0 0 810 809.999993" height="1080" preserveAspectRatio="xMidYMid meet" version="1.2"><defs><clipPath id="c44b5358ee"><path d="M 226.660156 218.746094 L 583.660156 218.746094 L 583.660156 591.496094 L 226.660156 591.496094 Z M 226.660156 218.746094 "/></clipPath></defs><g id="d0d52e23da"><path style=" stroke:none;fill-rule:nonzero;fill:#6590b4;fill-opacity:1;" d="M 256.242188 492.824219 C 263.398438 493.039062 270.566406 493.070312 277.730469 493.101562 C 284.898438 493.070312 292.0625 493.039062 299.21875 492.824219 C 306.390625 492.644531 313.550781 492.421875 320.71875 491.949219 C 313.554688 491.46875 306.390625 491.25 299.21875 491.066406 C 292.0625 490.855469 284.898438 490.828125 277.730469 490.796875 C 270.574219 490.824219 263.398438 490.855469 256.242188 491.058594 L 245.492188 491.386719 C 241.910156 491.574219 238.324219 491.683594 234.738281 491.949219 C 238.324219 492.203125 241.910156 492.316406 245.492188 492.511719 Z M 256.242188 492.824219 "/><path style=" stroke:none;fill-rule:nonzero;fill:#6590b4;fill-opacity:1;" d="M 277.730469 516.625 C 249.457031 516.625 236.921875 502.21875 232.339844 494.804688 C 235.167969 507.179688 248.21875 521.90625 277.730469 521.90625 C 307.242188 521.90625 320.296875 507.179688 323.121094 494.804688 C 318.546875 502.21875 306.015625 516.625 277.730469 516.625 Z M 277.730469 516.625 "/><path style=" stroke:none;fill-rule:nonzero;fill:#6590b4;fill-opacity:1;" d="M 418.019531 278.171875 C 418.019531 277.761719 417.992188 277.425781 417.949219 277.132812 C 417.476562 275.964844 416.550781 275.605469 415.589844 275.605469 C 414.726562 275.808594 413.871094 276.21875 413.546875 276.40625 C 413.304688 276.542969 413.027344 276.621094 412.742188 276.621094 L 404.988281 276.621094 L 404.988281 286.167969 L 413.429688 286.167969 C 415.617188 284.507812 418.019531 281.835938 418.019531 278.171875 Z M 418.019531 278.171875 "/><path style=" stroke:none;fill-rule:nonzero;fill:#6590b4;fill-opacity:1;" d="M 411.136719 265.257812 C 411.136719 262.007812 412.601562 260.015625 414.023438 258.085938 C 415.632812 255.898438 417.160156 253.824219 417.160156 249.476562 C 417.160156 242.96875 410.945312 239.519531 409.046875 238.621094 L 404.988281 238.621094 L 404.988281 268.746094 L 411.136719 268.746094 Z M 411.136719 265.257812 "/><path style=" stroke:none;fill-rule:nonzero;fill:#6590b4;fill-opacity:1;" d="M 532.007812 317.128906 C 533.40625 319.660156 533.726562 322.695312 532.742188 325.957031 C 534.027344 324.820312 534.855469 323.117188 535.058594 321.320312 C 535.296875 319.519531 534.882812 317.636719 534.011719 316.011719 C 533.097656 314.417969 531.726562 313.0625 530.0625 312.3125 C 528.4375 311.515625 526.550781 311.34375 524.910156 311.796875 C 526.542969 312.3125 527.964844 312.933594 529.15625 313.859375 C 530.339844 314.753906 531.316406 315.867188 532.007812 317.125 Z M 532.007812 317.128906 "/><path style=" stroke:none;fill-rule:nonzero;fill:#6590b4;fill-opacity:1;" d="M 532.253906 516.625 C 503.972656 516.625 491.4375 502.21875 486.859375 494.804688 C 489.6875 507.179688 502.734375 521.90625 532.253906 521.90625 C 561.769531 521.90625 574.8125 507.179688 577.640625 494.804688 C 573.0625 502.21875 560.535156 516.625 532.253906 516.625 Z M 532.253906 516.625 "/><path style=" stroke:none;fill-rule:nonzero;fill:#6590b4;fill-opacity:1;" d="M 413.660156 294.097656 L 404.988281 294.097656 C 404.988281 294.097656 408.140625 305.140625 408.140625 311.167969 C 408.140625 317.199219 404.988281 318.914062 404.988281 318.914062 L 417.355469 318.914062 C 418.171875 318.753906 418.863281 318.449219 419.445312 318.03125 C 420.691406 316.8125 421.515625 314.292969 421.546875 310.265625 C 420.660156 304.769531 416.5625 298.199219 413.660156 294.097656 Z M 413.660156 294.097656 "/><path style=" stroke:none;fill-rule:nonzero;fill:#6590b4;fill-opacity:1;" d="M 510.757812 492.824219 C 517.921875 493.039062 525.089844 493.070312 532.253906 493.101562 C 539.410156 493.070312 546.582031 493.039062 553.746094 492.824219 C 560.910156 492.644531 568.070312 492.421875 575.234375 491.949219 C 568.078125 491.46875 560.90625 491.25 553.746094 491.066406 C 546.582031 490.855469 539.410156 490.828125 532.253906 490.796875 C 525.089844 490.824219 517.921875 490.855469 510.757812 491.058594 L 500.007812 491.386719 C 496.429688 491.574219 492.847656 491.683594 489.261719 491.949219 C 492.847656 492.203125 496.429688 492.316406 500.007812 492.511719 Z M 510.757812 492.824219 "/><g clip-rule="nonzero" clip-path="url(#c44b5358ee)"><path style=" stroke:none;fill-rule:nonzero;fill:#6590b4;fill-opacity:1;" d="M 580.601562 486.28125 L 535.019531 329.476562 C 539.878906 327.21875 543.21875 322.335938 543.21875 316.765625 C 543.21875 308.980469 536.882812 302.644531 529.09375 302.644531 C 525.816406 302.644531 522.722656 303.753906 520.210938 305.8125 C 510.203125 304.484375 458.988281 297.929688 422.851562 296.949219 C 421.363281 294.320312 419.773438 291.953125 418.441406 290.09375 C 421.445312 287.398438 424.21875 283.359375 424.21875 278.171875 C 424.21875 272.136719 420.679688 269.691406 417.332031 269.34375 L 417.332031 265.253906 C 417.332031 264.101562 417.765625 263.457031 419.011719 261.761719 C 420.847656 259.269531 423.355469 255.863281 423.355469 249.472656 C 423.355469 241.363281 417.707031 236.550781 413.941406 234.234375 C 414.210938 230.464844 414.023438 224.964844 411.21875 221.640625 C 409.644531 219.792969 407.441406 218.765625 404.988281 218.765625 C 402.539062 218.765625 400.328125 219.792969 398.765625 221.640625 C 395.960938 224.964844 395.765625 230.46875 396.042969 234.234375 C 392.273438 236.550781 386.628906 241.363281 386.628906 249.472656 C 386.628906 255.855469 389.132812 259.269531 390.96875 261.761719 C 392.21875 263.457031 392.648438 264.101562 392.648438 265.253906 L 392.648438 269.34375 C 390.785156 269.53125 389.125 270.339844 387.921875 271.679688 C 386.492188 273.253906 385.765625 275.445312 385.765625 278.171875 C 385.765625 283.359375 388.539062 287.398438 391.539062 290.09375 C 390.207031 291.953125 388.625 294.316406 387.128906 296.949219 C 350.992188 297.925781 299.769531 304.484375 289.769531 305.8125 C 287.257812 303.753906 284.160156 302.644531 280.882812 302.644531 C 273.097656 302.644531 266.765625 308.980469 266.765625 316.765625 C 266.765625 322.335938 270.105469 327.21875 274.960938 329.476562 L 229.382812 486.28125 C 227.824219 486.613281 226.660156 487.996094 226.660156 489.652344 C 226.660156 504.652344 240.257812 526.953125 277.730469 526.953125 C 315.203125 526.953125 328.808594 504.652344 328.808594 489.652344 C 328.808594 487.996094 327.640625 486.613281 326.082031 486.28125 L 280.78125 330.453125 C 281.40625 330.183594 281.96875 329.757812 282.347656 329.164062 C 283.078125 328.046875 283.082031 326.605469 282.378906 325.480469 C 281.910156 324.714844 281.664062 323.90625 281.664062 323.066406 C 281.664062 320.539062 283.722656 318.484375 286.242188 318.484375 C 287.632812 318.484375 288.648438 319.125 289.257812 319.660156 C 289.886719 320.21875 290.703125 320.523438 291.53125 320.523438 C 291.769531 320.523438 292.007812 320.496094 292.246094 320.453125 C 296.464844 319.550781 304.484375 318.484375 318.726562 318.484375 C 341.699219 318.484375 378.027344 328.324219 390.355469 331.863281 L 390.359375 537.546875 C 388.636719 538.214844 387.09375 539.296875 385.800781 540.742188 C 381.8125 545.203125 381.011719 552.449219 380.980469 557.296875 C 373.835938 557.976562 368.839844 560.257812 366.109375 564.117188 C 365.042969 565.613281 364.457031 567.148438 364.171875 568.5625 L 342.4375 568.5625 L 342.4375 591.230469 L 467.546875 591.230469 L 467.546875 568.5625 L 445.804688 568.5625 C 445.515625 567.148438 444.941406 565.621094 443.875 564.117188 C 441.140625 560.261719 436.15625 557.976562 429.003906 557.296875 C 428.972656 552.449219 428.171875 545.203125 424.183594 540.742188 C 422.882812 539.296875 421.351562 538.214844 419.628906 537.546875 L 419.628906 331.863281 C 431.957031 328.324219 468.300781 318.484375 491.257812 318.484375 C 505.492188 318.484375 513.515625 319.550781 517.734375 320.453125 C 517.980469 320.5 518.214844 320.523438 518.453125 320.523438 C 519.285156 320.523438 520.101562 320.21875 520.734375 319.660156 C 521.339844 319.125 522.347656 318.484375 523.742188 318.484375 C 526.265625 318.484375 528.320312 320.539062 528.320312 323.066406 C 528.320312 323.910156 528.074219 324.714844 527.609375 325.480469 C 526.902344 326.605469 526.910156 328.046875 527.636719 329.164062 C 528.015625 329.757812 528.574219 330.183594 529.203125 330.453125 L 483.902344 486.28125 C 482.347656 486.613281 481.175781 487.996094 481.175781 489.652344 C 481.175781 504.652344 494.773438 526.953125 532.253906 526.953125 C 569.730469 526.953125 583.328125 504.652344 583.328125 489.652344 C 583.328125 487.996094 582.15625 486.613281 580.601562 486.28125 Z M 578.1875 486.210938 L 547.015625 486.210938 L 533.867188 333.757812 Z M 400.59375 230.851562 C 400.597656 230.488281 400.625 230.125 400.644531 229.761719 C 400.660156 229.601562 400.675781 229.445312 400.695312 229.289062 C 400.730469 228.945312 400.777344 228.617188 400.832031 228.277344 C 400.859375 228.128906 400.878906 227.988281 400.914062 227.835938 C 401 227.410156 401.101562 226.992188 401.234375 226.601562 C 401.402344 226.09375 401.574219 225.710938 401.773438 225.363281 C 401.832031 225.253906 401.90625 225.160156 401.976562 225.066406 C 402.125 224.832031 402.289062 224.621094 402.484375 224.425781 C 402.574219 224.328125 402.671875 224.242188 402.78125 224.152344 C 402.976562 223.988281 403.207031 223.851562 403.441406 223.738281 C 403.550781 223.683594 403.648438 223.621094 403.773438 223.578125 C 404.140625 223.457031 404.539062 223.371094 404.988281 223.371094 C 405.445312 223.359375 405.84375 223.457031 406.214844 223.578125 C 406.328125 223.621094 406.429688 223.683594 406.542969 223.738281 C 406.78125 223.851562 407.007812 223.988281 407.207031 224.152344 C 407.3125 224.242188 407.40625 224.328125 407.5 224.425781 C 407.691406 224.621094 407.855469 224.832031 408.007812 225.066406 C 408.078125 225.160156 408.148438 225.257812 408.210938 225.363281 C 408.40625 225.710938 408.582031 226.09375 408.726562 226.503906 C 408.878906 226.996094 408.988281 227.410156 409.074219 227.835938 C 409.101562 227.992188 409.128906 228.132812 409.148438 228.28125 C 409.210938 228.617188 409.25 228.949219 409.289062 229.289062 C 409.304688 229.449219 409.320312 229.601562 409.332031 229.765625 C 409.363281 230.128906 409.386719 230.488281 409.394531 230.851562 C 409.394531 230.96875 409.40625 231.085938 409.40625 231.210938 C 409.417969 231.691406 409.410156 232.175781 409.402344 232.632812 L 400.589844 232.632812 C 400.574219 232.175781 400.566406 231.695312 400.578125 231.210938 C 400.582031 231.085938 400.589844 230.964844 400.59375 230.851562 Z M 391.21875 249.476562 C 391.21875 248.945312 391.253906 248.445312 391.320312 247.949219 C 391.339844 247.792969 391.378906 247.644531 391.40625 247.480469 C 391.464844 247.15625 391.523438 246.839844 391.605469 246.53125 C 391.652344 246.359375 391.710938 246.195312 391.761719 246.019531 C 391.847656 245.742188 391.941406 245.472656 392.046875 245.207031 C 392.117188 245.042969 392.183594 244.886719 392.257812 244.726562 C 392.375 244.46875 392.496094 244.230469 392.625 243.988281 C 392.707031 243.839844 392.785156 243.695312 392.871094 243.546875 C 393.011719 243.300781 393.167969 243.082031 393.320312 242.851562 C 393.414062 242.726562 393.492188 242.601562 393.582031 242.480469 C 393.757812 242.234375 393.945312 242.003906 394.132812 241.78125 C 394.21875 241.695312 394.285156 241.59375 394.359375 241.503906 C 394.617188 241.214844 394.878906 240.949219 395.140625 240.699219 C 395.480469 240.355469 395.78125 240.089844 396.082031 239.832031 C 396.453125 239.535156 396.703125 239.34375 396.945312 239.152344 C 397.03125 239.089844 397.105469 239.035156 397.195312 238.980469 C 397.402344 238.835938 397.59375 238.691406 397.792969 238.566406 C 397.882812 238.5 397.96875 238.445312 398.0625 238.390625 C 398.238281 238.269531 398.410156 238.164062 398.59375 238.058594 C 398.675781 238.003906 398.757812 237.957031 398.855469 237.902344 C 399.007812 237.808594 399.160156 237.722656 399.3125 237.648438 C 399.390625 237.601562 399.464844 237.5625 399.546875 237.519531 C 399.6875 237.453125 399.808594 237.378906 399.925781 237.328125 C 399.996094 237.292969 400.066406 237.257812 400.125 237.226562 C 400.238281 237.171875 400.324219 237.136719 400.410156 237.085938 C 400.46875 237.066406 400.527344 237.035156 400.585938 237.019531 L 409.398438 237.019531 C 409.445312 237.035156 409.507812 237.066406 409.5625 237.085938 C 409.648438 237.136719 409.742188 237.171875 409.847656 237.226562 C 409.910156 237.257812 409.976562 237.292969 410.046875 237.328125 C 410.167969 237.378906 410.292969 237.453125 410.429688 237.519531 C 410.5 237.5625 410.578125 237.601562 410.65625 237.648438 C 410.8125 237.722656 410.964844 237.808594 411.128906 237.902344 C 411.210938 237.960938 411.292969 238.003906 411.390625 238.058594 C 411.558594 238.164062 411.730469 238.269531 411.917969 238.390625 C 412.003906 238.445312 412.089844 238.5 412.183594 238.566406 C 412.375 238.6875 412.578125 238.835938 412.78125 238.980469 C 412.867188 239.039062 412.945312 239.09375 413.023438 239.152344 C 413.273438 239.34375 413.523438 239.535156 413.773438 239.738281 C 414.1875 240.089844 414.488281 240.355469 414.785156 240.640625 C 415.097656 240.949219 415.355469 241.222656 415.613281 241.503906 C 415.691406 241.59375 415.761719 241.691406 415.839844 241.78125 C 416.03125 242.003906 416.210938 242.238281 416.394531 242.480469 C 416.488281 242.597656 416.566406 242.726562 416.652344 242.851562 C 416.804688 243.082031 416.957031 243.300781 417.101562 243.546875 C 417.183594 243.695312 417.265625 243.839844 417.347656 243.988281 C 417.480469 244.230469 417.597656 244.46875 417.714844 244.726562 C 417.796875 244.886719 417.859375 245.042969 417.929688 245.207031 C 418.03125 245.476562 418.121094 245.746094 418.210938 246.019531 C 418.265625 246.191406 418.324219 246.359375 418.367188 246.53125 C 418.445312 246.839844 418.507812 247.160156 418.566406 247.480469 C 418.597656 247.644531 418.628906 247.792969 418.644531 247.949219 C 418.714844 248.445312 418.753906 248.945312 418.753906 249.476562 C 418.753906 258.371094 412.730469 259.230469 412.730469 265.257812 L 412.730469 270.355469 L 397.234375 270.355469 L 397.234375 265.257812 C 397.234375 259.230469 391.207031 258.371094 391.207031 249.476562 Z M 391.492188 282.738281 C 391.304688 282.375 391.140625 281.996094 390.996094 281.609375 C 390.945312 281.46875 390.894531 281.324219 390.855469 281.183594 C 390.746094 280.851562 390.65625 280.515625 390.582031 280.160156 C 390.550781 280.011719 390.519531 279.867188 390.496094 279.71875 C 390.414062 279.214844 390.359375 278.703125 390.359375 278.171875 C 390.363281 276.480469 390.75 275.402344 391.328125 274.761719 C 391.621094 274.441406 391.960938 274.21875 392.339844 274.082031 C 392.523438 274.019531 392.710938 273.964844 392.914062 273.941406 C 393.105469 273.902344 393.308594 273.886719 393.511719 273.886719 C 394.871094 273.886719 396.289062 274.515625 396.917969 274.835938 C 397.125 274.941406 397.25 275.011719 397.25 275.011719 L 412.746094 275.011719 C 412.746094 275.011719 413.488281 274.578125 414.5 274.246094 C 415.105469 274.046875 415.800781 273.886719 416.480469 273.886719 C 417.289062 273.886719 418.078125 274.117188 418.664062 274.761719 C 419.25 275.40625 419.632812 276.480469 419.632812 278.171875 C 419.632812 278.703125 419.582031 279.214844 419.496094 279.71875 C 419.472656 279.867188 419.4375 280.015625 419.410156 280.160156 C 419.332031 280.511719 419.246094 280.851562 419.136719 281.183594 C 419.085938 281.324219 419.039062 281.46875 418.992188 281.609375 C 418.851562 281.996094 418.6875 282.375 418.496094 282.738281 C 418.210938 283.285156 417.96875 283.664062 417.714844 284.03125 C 417.652344 284.136719 417.574219 284.246094 417.496094 284.339844 C 417.296875 284.605469 417.101562 284.867188 416.886719 285.113281 C 416.808594 285.203125 416.738281 285.292969 416.65625 285.378906 C 416.386719 285.679688 416.109375 285.972656 415.839844 286.238281 C 415.5 286.554688 415.191406 286.828125 414.875 287.085938 C 414.539062 287.355469 414.253906 287.585938 413.964844 287.785156 L 396.027344 287.785156 C 395.746094 287.585938 395.457031 287.355469 395.15625 287.113281 C 394.808594 286.828125 394.496094 286.554688 394.179688 286.246094 C 393.882812 285.972656 393.609375 285.683594 393.335938 285.382812 C 393.265625 285.296875 393.1875 285.207031 393.105469 285.113281 C 392.894531 284.867188 392.695312 284.609375 392.496094 284.339844 C 392.421875 284.246094 392.34375 284.136719 392.273438 284.035156 C 392.019531 283.667969 391.78125 283.289062 391.558594 282.882812 C 391.539062 282.835938 391.515625 282.789062 391.496094 282.738281 Z M 276.660156 331.890625 L 283.316406 486.210938 L 231.792969 486.210938 L 276.65625 331.890625 Z M 325.347656 490.507812 C 324.734375 505.347656 310.605469 523.511719 277.730469 523.511719 C 244.855469 523.511719 230.734375 505.347656 230.15625 490.597656 C 230.140625 490.234375 230.105469 489.9375 230.105469 489.652344 L 325.371094 489.652344 C 325.371094 489.933594 325.328125 490.234375 325.324219 490.507812 Z M 323.671875 486.210938 L 285.714844 486.210938 L 279.105469 332.914062 Z M 318.730469 315.042969 C 304.183594 315.042969 295.9375 316.144531 291.535156 317.074219 C 290.125 315.832031 288.289062 315.042969 286.246094 315.042969 C 281.816406 315.042969 278.226562 318.636719 278.226562 323.066406 C 278.230469 324.621094 278.6875 326.070312 279.460938 327.300781 C 274.246094 326.597656 270.207031 322.175781 270.207031 316.769531 C 270.207031 310.871094 274.992188 306.085938 280.886719 306.085938 C 283.949219 306.085938 286.6875 307.382812 288.628906 309.445312 C 289.1875 309.351562 345.460938 301.710938 385.296875 300.453125 C 383.484375 304.234375 382.121094 308.289062 382.050781 312.011719 C 377.941406 311.257812 373.820312 310.609375 369.683594 310.023438 C 362.285156 308.949219 354.824219 308.238281 347.351562 307.761719 C 339.878906 307.316406 332.367188 307.167969 324.890625 307.46875 C 317.425781 307.765625 309.917969 308.246094 302.570312 309.714844 C 306.304688 309.460938 310.019531 309.28125 313.75 309.265625 C 317.46875 309.171875 321.195312 309.171875 324.914062 309.234375 C 332.363281 309.351562 339.785156 309.558594 347.214844 310.050781 C 354.644531 310.464844 362.0625 311.125 369.484375 311.769531 C 373.195312 312.082031 376.898438 312.46875 380.609375 312.859375 L 382.082031 313.019531 C 382.109375 313.589844 382.132812 314.167969 382.195312 314.6875 C 368.914062 312.828125 346.941406 310.308594 325.710938 310.308594 C 300.035156 310.308594 290.769531 312.539062 287.835938 313.578125 C 289.3125 313.828125 290.722656 314.4375 291.957031 315.351562 C 296.582031 314.445312 304.835938 313.4375 318.730469 313.4375 C 341.792969 313.4375 376.671875 322.695312 390.359375 326.601562 L 390.363281 328.28125 C 377.09375 324.492188 341.683594 315.042969 318.730469 315.042969 Z M 444.074219 573.152344 L 462.957031 573.152344 L 462.957031 586.640625 L 347.035156 586.640625 L 347.035156 573.152344 Z M 429.496094 561.957031 C 437.371094 562.894531 440.175781 565.953125 441.078125 568.632812 L 368.910156 568.632812 C 369.023438 568.3125 369.15625 567.980469 369.328125 567.648438 C 369.523438 567.269531 369.722656 566.953125 369.957031 566.632812 C 370.257812 566.246094 370.535156 565.941406 370.847656 565.640625 C 371.269531 565.246094 371.628906 564.960938 372.023438 564.683594 C 372.074219 564.660156 372.125 564.628906 372.171875 564.589844 C 372.582031 564.3125 373.03125 564.0625 373.539062 563.8125 C 373.597656 563.78125 373.648438 563.761719 373.707031 563.730469 C 374.230469 563.488281 374.804688 563.257812 375.429688 563.042969 C 375.488281 563.023438 375.539062 563.015625 375.597656 562.992188 C 376.246094 562.777344 376.957031 562.582031 377.738281 562.417969 C 378.652344 562.226562 379.53125 562.074219 380.488281 561.96875 L 429.496094 561.960938 Z M 424.394531 557.441406 L 385.582031 557.441406 C 385.589844 557.121094 385.597656 556.792969 385.601562 556.460938 C 385.605469 556.304688 385.613281 556.144531 385.621094 555.992188 C 385.636719 555.507812 385.664062 555.011719 385.707031 554.496094 C 385.726562 554.246094 385.738281 553.996094 385.769531 553.734375 C 385.789062 553.441406 385.835938 553.148438 385.871094 552.855469 C 385.902344 552.613281 385.933594 552.371094 385.964844 552.125 C 386.011719 551.824219 386.054688 551.519531 386.113281 551.207031 C 386.171875 550.902344 386.234375 550.601562 386.304688 550.304688 C 386.402344 549.847656 386.515625 549.394531 386.640625 548.957031 C 386.703125 548.742188 386.757812 548.53125 386.832031 548.332031 C 386.933594 548.011719 387.039062 547.703125 387.152344 547.386719 C 387.210938 547.246094 387.28125 547.101562 387.335938 546.960938 C 387.582031 546.382812 387.855469 545.835938 388.167969 545.3125 C 388.242188 545.1875 388.324219 545.0625 388.394531 544.941406 C 388.582031 544.652344 388.785156 544.386719 388.992188 544.121094 C 389.070312 544.035156 389.15625 543.941406 389.238281 543.855469 C 389.671875 543.367188 390.164062 542.9375 390.707031 542.574219 C 390.773438 542.519531 390.832031 542.46875 390.898438 542.429688 C 391.1875 542.253906 391.496094 542.097656 391.8125 541.964844 C 391.9375 541.910156 392.078125 541.863281 392.214844 541.8125 C 392.929688 541.550781 393.703125 541.375 394.582031 541.34375 L 415.414062 541.34375 C 423.175781 541.671875 424.378906 551.570312 424.394531 557.4375 Z M 394.949219 536.828125 L 394.949219 325.0625 L 415.035156 325.0625 L 415.035156 536.828125 Z M 419.472656 319.890625 C 419.019531 320.097656 418.722656 320.21875 418.410156 320.3125 C 418.039062 320.417969 417.726562 320.496094 417.4375 320.542969 L 392.542969 320.542969 C 392.253906 320.496094 391.949219 320.417969 391.632812 320.320312 C 391.261719 320.21875 390.957031 320.097656 390.644531 319.957031 C 389.894531 319.59375 389.300781 319.191406 388.765625 318.640625 C 388.707031 318.59375 388.652344 318.53125 388.597656 318.476562 C 388.347656 318.199219 388.101562 317.890625 387.890625 317.535156 C 387.847656 317.484375 387.824219 317.421875 387.785156 317.359375 C 387.601562 317.035156 387.421875 316.664062 387.273438 316.265625 C 387.25 316.195312 387.210938 316.121094 387.1875 316.042969 C 387.03125 315.59375 386.90625 315.09375 386.816406 314.558594 C 386.792969 314.441406 386.777344 314.308594 386.757812 314.191406 C 386.679688 313.613281 386.625 312.996094 386.625 312.3125 C 386.625 311.789062 386.671875 311.234375 386.742188 310.683594 C 386.757812 310.53125 386.777344 310.386719 386.804688 310.234375 C 386.875 309.761719 386.96875 309.289062 387.078125 308.808594 C 387.097656 308.710938 387.113281 308.621094 387.140625 308.527344 C 387.285156 307.953125 387.453125 307.363281 387.648438 306.789062 C 387.691406 306.648438 387.738281 306.523438 387.785156 306.394531 C 387.960938 305.902344 388.136719 305.410156 388.332031 304.925781 C 388.378906 304.800781 388.433594 304.675781 388.484375 304.550781 C 388.734375 303.960938 388.988281 303.371094 389.265625 302.785156 C 389.304688 302.703125 389.347656 302.625 389.382812 302.542969 C 389.628906 302.027344 389.882812 301.527344 390.144531 301.027344 C 390.222656 300.878906 390.292969 300.746094 390.375 300.59375 C 390.671875 300.050781 390.964844 299.496094 391.273438 298.960938 C 391.613281 298.386719 391.921875 297.863281 392.242188 297.351562 C 392.34375 297.175781 392.445312 297.023438 392.554688 296.859375 C 392.777344 296.484375 393.007812 296.128906 393.238281 295.785156 C 393.332031 295.632812 393.425781 295.488281 393.527344 295.34375 C 393.804688 294.917969 394.078125 294.515625 394.347656 294.121094 C 394.488281 293.910156 394.628906 293.722656 394.765625 293.523438 C 394.898438 293.324219 395.03125 293.136719 395.167969 292.953125 C 395.324219 292.722656 395.472656 292.511719 395.628906 292.304688 L 414.355469 292.304688 C 414.511719 292.511719 414.667969 292.722656 414.820312 292.953125 C 414.953125 293.136719 415.085938 293.324219 415.21875 293.523438 C 415.363281 293.722656 415.496094 293.910156 415.640625 294.121094 C 415.90625 294.515625 416.1875 294.917969 416.46875 295.34375 C 416.5625 295.488281 416.652344 295.632812 416.75 295.785156 C 416.980469 296.128906 417.207031 296.484375 417.4375 296.859375 C 417.539062 297.019531 417.640625 297.175781 417.742188 297.351562 C 418.0625 297.863281 418.371094 298.386719 418.683594 298.921875 C 419.011719 299.492188 419.320312 300.050781 419.613281 300.59375 C 419.691406 300.742188 419.761719 300.875 419.839844 301.023438 C 420.101562 301.523438 420.355469 302.027344 420.601562 302.539062 C 420.644531 302.625 420.679688 302.699219 420.722656 302.785156 C 420.996094 303.367188 421.257812 303.957031 421.496094 304.550781 C 421.550781 304.671875 421.605469 304.800781 421.652344 304.921875 C 421.84375 305.410156 422.035156 305.902344 422.195312 306.390625 C 422.246094 306.519531 422.292969 306.644531 422.335938 306.785156 C 422.527344 307.359375 422.699219 307.953125 422.84375 308.523438 C 422.867188 308.617188 422.882812 308.707031 422.910156 308.804688 C 423.019531 309.285156 423.113281 309.757812 423.175781 310.234375 C 423.203125 310.382812 423.222656 310.53125 423.246094 310.683594 C 423.308594 311.234375 423.359375 311.785156 423.359375 312.3125 C 423.359375 312.996094 423.292969 313.609375 423.222656 314.1875 C 423.203125 314.308594 423.1875 314.441406 423.171875 314.558594 C 423.074219 315.089844 422.949219 315.589844 422.804688 316.039062 C 422.773438 316.121094 422.742188 316.191406 422.710938 316.261719 C 422.558594 316.664062 422.386719 317.03125 422.195312 317.355469 C 422.164062 317.421875 422.132812 317.480469 422.09375 317.535156 C 421.875 317.890625 421.636719 318.195312 421.386719 318.472656 C 421.332031 318.53125 421.273438 318.589844 421.21875 318.640625 C 420.679688 319.191406 420.085938 319.59375 419.476562 319.886719 Z M 523.742188 315.042969 C 521.699219 315.042969 519.867188 315.832031 518.449219 317.074219 C 514.050781 316.144531 505.800781 315.042969 491.257812 315.042969 C 468.304688 315.042969 432.894531 324.492188 419.628906 328.277344 L 419.628906 326.597656 C 433.3125 322.695312 468.191406 313.4375 491.257812 313.4375 C 505.148438 313.4375 513.410156 314.445312 518.035156 315.351562 C 519.261719 314.433594 520.671875 313.828125 522.152344 313.574219 C 519.214844 312.535156 509.953125 310.308594 484.269531 310.308594 C 463.042969 310.308594 441.074219 312.828125 427.785156 314.6875 C 427.855469 314.164062 427.878906 313.589844 427.902344 313.019531 L 429.378906 312.859375 C 433.078125 312.464844 436.789062 312.078125 440.507812 311.769531 C 447.929688 311.121094 455.34375 310.46875 462.773438 310.050781 C 470.203125 309.554688 477.621094 309.351562 485.070312 309.230469 C 488.792969 309.171875 492.515625 309.171875 496.242188 309.265625 C 499.96875 309.277344 503.683594 309.457031 507.417969 309.710938 C 500.074219 308.246094 492.5625 307.765625 485.09375 307.464844 C 477.621094 307.164062 470.101562 307.316406 462.632812 307.757812 C 455.164062 308.238281 447.707031 308.949219 440.304688 310.019531 C 436.164062 310.605469 432.042969 311.253906 427.933594 312.007812 C 427.867188 308.285156 426.507812 304.230469 424.6875 300.449219 C 464.527344 301.710938 520.800781 309.351562 521.359375 309.445312 C 523.308594 307.378906 526.042969 306.082031 529.09375 306.082031 C 534.996094 306.082031 539.78125 310.871094 539.78125 316.765625 C 539.78125 322.175781 535.738281 326.597656 530.523438 327.300781 C 531.296875 326.070312 531.765625 324.617188 531.765625 323.066406 C 531.765625 318.636719 528.171875 315.039062 523.742188 315.039062 Z M 531.269531 331.5625 L 544.605469 486.210938 L 486.316406 486.210938 Z M 579.867188 490.507812 C 579.359375 502.519531 570.054688 516.675781 549.113281 521.660156 C 544.160156 522.84375 538.542969 523.511719 532.253906 523.511719 C 499.378906 523.511719 485.25 505.347656 484.671875 490.597656 C 484.660156 490.234375 484.621094 489.9375 484.621094 489.652344 L 579.890625 489.652344 C 579.890625 489.933594 579.847656 490.234375 579.84375 490.507812 Z M 579.867188 490.507812 "/></g><path style=" stroke:none;fill-rule:nonzero;fill:#6590b4;fill-opacity:1;" d="M 349.039062 585.132812 L 460.945312 585.132812 L 460.945312 579.828125 L 349.039062 579.828125 Z M 349.039062 585.132812 "/><path style=" stroke:none;fill-rule:nonzero;fill:#6590b4;fill-opacity:1;" d="M 279.921875 312.3125 C 278.265625 313.066406 276.890625 314.417969 275.972656 316.011719 C 275.101562 317.636719 274.6875 319.519531 274.921875 321.324219 C 275.128906 323.121094 275.957031 324.824219 277.242188 325.957031 C 276.257812 322.699219 276.574219 319.660156 277.976562 317.128906 C 278.671875 315.871094 279.640625 314.757812 280.832031 313.863281 C 282.019531 312.9375 283.4375 312.316406 285.070312 311.800781 C 283.4375 311.347656 281.539062 311.519531 279.921875 312.316406 Z M 279.921875 312.3125 "/><path style=" stroke:none;fill-rule:nonzero;fill:#6590b4;fill-opacity:1;" d="M 404.988281 326.667969 L 413.429688 326.667969 L 413.429688 535.214844 L 404.988281 535.214844 Z M 404.988281 326.667969 "/><path style=" stroke:none;fill-rule:nonzero;fill:#6590b4;fill-opacity:1;" d="M 438.257812 567.027344 C 436.570312 565.257812 433.570312 564.078125 429.402344 563.570312 L 423.238281 563.570312 C 423.875 564.613281 424.367188 565.847656 424.734375 567.027344 Z M 438.257812 567.027344 "/><path style=" stroke:none;fill-rule:nonzero;fill:#6590b4;fill-opacity:1;" d="M 410.492188 542.953125 C 411.074219 544.164062 411.5 545.804688 411.5 548.09375 C 411.5 551.269531 411.472656 553.863281 411.453125 555.832031 L 422.753906 555.832031 C 422.53125 550.527344 421.164062 543.21875 415.378906 542.953125 Z M 410.492188 542.953125 "/></g></svg>