<svg xmlns="http://www.w3.org/2000/svg" xmlns:xlink="http://www.w3.org/1999/xlink" width="1080" zoomAndPan="magnify" viewBox="0 0 810 809.999993" height="1080" preserveAspectRatio="xMidYMid meet" version="1.2"><g id="1d8cb7fbeb"><path style=" stroke:none;fill-rule:nonzero;fill:#d9d9d9;fill-opacity:1;" d="M 415.214844 249.039062 C 321.007812 243.015625 243.015625 321.003906 249.039062 415.214844 C 254.015625 493.085938 316.914062 555.984375 394.785156 560.964844 C 488.996094 566.988281 566.988281 489 560.964844 394.785156 C 555.984375 316.914062 493.085938 254.015625 415.214844 249.039062 Z M 475.765625 482.550781 C 481.914062 461.433594 485.582031 437.140625 486.074219 411.011719 L 549.117188 411.011719 C 547.734375 444.515625 534.875 475.085938 514.371094 498.925781 C 504.960938 492.335938 491.8125 486.761719 475.765625 482.550781 Z M 295.632812 498.925781 C 275.128906 475.085938 262.265625 444.515625 260.886719 411.011719 L 323.929688 411.011719 C 324.417969 437.140625 328.085938 461.433594 334.238281 482.550781 C 318.183594 486.765625 305.035156 492.335938 295.632812 498.925781 Z M 334.203125 327.554688 C 328.074219 348.652344 324.414062 372.902344 323.925781 398.988281 L 260.886719 398.988281 C 262.257812 365.644531 275.007812 335.203125 295.339844 311.414062 C 304.90625 317.894531 318.148438 323.390625 334.203125 327.554688 Z M 398.988281 398.988281 L 335.945312 398.988281 C 336.464844 374.113281 340.164062 350.628906 346.207031 330.316406 C 362.457031 333.59375 380.472656 335.460938 398.988281 335.796875 Z M 398.988281 411.011719 L 398.988281 474.207031 C 380.433594 474.542969 362.421875 476.4375 346.230469 479.753906 C 340.171875 459.425781 336.46875 435.917969 335.945312 411.011719 Z M 411.011719 411.011719 L 474.054688 411.011719 C 473.535156 435.917969 469.828125 459.425781 463.769531 479.753906 C 447.574219 476.4375 429.5625 474.542969 411.011719 474.207031 Z M 411.011719 398.988281 L 411.011719 335.792969 C 429.527344 335.460938 447.542969 333.589844 463.792969 330.316406 C 469.835938 350.628906 473.535156 374.113281 474.054688 398.988281 Z M 411.011719 323.773438 L 411.011719 261.339844 C 430.753906 265.089844 448.417969 287.011719 460 318.832031 C 444.894531 321.777344 428.1875 323.453125 411.011719 323.773438 Z M 398.988281 261.339844 L 398.988281 323.773438 C 381.8125 323.453125 365.105469 321.777344 350 318.832031 C 361.582031 287.011719 379.246094 265.085938 398.988281 261.339844 Z M 398.988281 486.226562 L 398.988281 548.664062 C 379.257812 544.917969 361.605469 523.019531 350.023438 491.238281 C 365.078125 488.25 381.777344 486.554688 398.988281 486.226562 Z M 411.011719 548.660156 L 411.011719 486.226562 C 428.21875 486.554688 444.917969 488.25 459.976562 491.238281 C 448.394531 523.015625 430.742188 544.917969 411.011719 548.660156 Z M 486.074219 398.988281 C 485.585938 372.902344 481.925781 348.652344 475.800781 327.554688 C 491.855469 323.386719 505.097656 317.894531 514.660156 311.414062 C 534.992188 335.203125 547.742188 365.644531 549.113281 398.988281 Z M 506.351562 302.445312 C 497.933594 307.777344 486.160156 312.484375 472.125 316.082031 C 464.582031 294.753906 454.34375 277.402344 442.277344 265.640625 C 466.8125 272.210938 488.789062 285.09375 506.351562 302.445312 Z M 337.875 316.085938 C 323.84375 312.484375 312.066406 307.78125 303.652344 302.449219 C 321.210938 285.09375 343.191406 272.214844 367.726562 265.644531 C 355.660156 277.402344 345.417969 294.757812 337.875 316.085938 Z M 303.957031 507.84375 C 312.191406 502.433594 323.875 497.664062 337.914062 494.019531 C 345.449219 515.296875 355.679688 532.617188 367.726562 544.359375 C 343.328125 537.824219 321.464844 525.046875 303.957031 507.84375 Z M 472.085938 494.019531 C 486.121094 497.664062 497.808594 502.433594 506.042969 507.84375 C 488.535156 525.050781 466.675781 537.828125 442.273438 544.359375 C 454.320312 532.617188 464.546875 515.296875 472.085938 494.019531 Z M 472.085938 494.019531 "/></g></svg>