<svg xmlns="http://www.w3.org/2000/svg" xmlns:xlink="http://www.w3.org/1999/xlink" width="1080" zoomAndPan="magnify" viewBox="0 0 810 809.999993" height="1080" preserveAspectRatio="xMidYMid meet" version="1.2"><g id="5145d4eb30"><path style=" stroke: currentColor;fill-rule:nonzero;fill: currentColor;fill-opacity:1;" d="M 268.058594 402.472656 C 270.636719 409.089844 259.46875 413.6875 256.839844 407.070312 C 250.828125 392.316406 237.234375 383.824219 221.824219 380.390625 C 221.015625 380.289062 220.207031 380.035156 219.800781 379.683594 C 219.195312 379.175781 218.789062 378.824219 218.589844 378.265625 C 218.386719 378.671875 218.183594 379.125 218.183594 379.328125 C 214.394531 390.242188 210.605469 401.207031 206.96875 411.921875 C 204.390625 419.296875 193.171875 417.882812 195.75 410.503906 C 208.128906 374.527344 220.558594 338.601562 232.789062 302.675781 C 235.363281 295.296875 246.582031 296.710938 244.003906 304.089844 C 236.78125 325.3125 229.402344 346.535156 222.175781 367.960938 C 231.371094 368.667969 243.601562 362.148438 250.980469 355.527344 C 258.40625 348.707031 264.371094 338.652344 267.199219 329.253906 C 271.191406 315.105469 270.785156 295.953125 256.992188 289.285156 C 241.984375 282.007812 218.183594 289.738281 204.945312 302.976562 C 191.757812 316.015625 178.921875 342.847656 191.757812 357.246094 C 196.355469 362.402344 188.167969 371.75 183.570312 366.59375 C 167.148438 348.304688 177.355469 313.839844 196.761719 295.902344 C 214.75 279.175781 244.15625 267.808594 264.371094 279.175781 C 282.359375 289.433594 284.175781 314.398438 276.953125 334.609375 C 271.34375 350.222656 257.953125 366.695312 242.136719 374.730469 C 253.757812 380.492188 262.753906 389.636719 267.957031 402.523438 Z M 396.304688 319.804688 C 382.507812 345.980469 373.3125 375.085938 366.085938 403.078125 C 362.902344 416.113281 358.304688 431.777344 347.085938 441.378906 C 335.464844 451.636719 322.277344 448.65625 311.867188 442.136719 C 305.855469 438.601562 311.664062 427.535156 317.679688 431.324219 C 322.679688 434.40625 330.058594 439.003906 336.878906 435.417969 C 342.285156 432.636719 345.875 426.523438 348.503906 421.167969 C 352.898438 411.164062 355.121094 400.601562 358.101562 390.191406 C 359.316406 386.050781 360.527344 381.855469 361.894531 377.863281 C 361.285156 378.570312 360.882812 379.226562 360.476562 379.882812 C 356.484375 385.644531 351.886719 393.074219 345.671875 396.761719 C 338.648438 400.753906 331.472656 396.761719 329.855469 389.789062 C 329.402344 387.96875 329.199219 386.050781 329.046875 384.128906 C 322.378906 391.859375 314.394531 398.480469 305.703125 402.21875 C 290.292969 408.789062 277.710938 402.574219 275.6875 386.605469 C 274.476562 376.75 277.507812 366.140625 281.5 356.386719 C 284.882812 347.898438 289.28125 337.289062 296.507812 330.871094 C 310.097656 318.339844 325.105469 324.855469 324.097656 340.015625 C 324.097656 340.824219 324.097656 341.429688 323.894531 342.238281 C 321.46875 353.355469 317.273438 363.96875 308.480469 372.203125 C 302.066406 378.117188 294.6875 383.574219 286.855469 383.269531 C 287.058594 386.25 288.066406 388.878906 289.835938 391.050781 C 294.839844 397.367188 306.257812 389.941406 311.664062 385.59375 C 321.265625 377.863281 328.695312 368.011719 333.292969 356.945312 C 333.394531 356.691406 333.597656 356.539062 333.746094 356.285156 C 337.03125 347.546875 341.527344 339.15625 346.53125 332.488281 C 353.351562 323.339844 362.347656 314.246094 373.363281 316.519531 C 377.757812 317.480469 380.789062 319.855469 382.558594 323.238281 C 383.773438 320.664062 385.1875 318.085938 386.347656 315.507812 C 390.140625 308.585938 400.144531 312.984375 396.355469 319.90625 Z M 287.867188 371.445312 C 288.269531 371.394531 288.472656 371.546875 288.675781 371.546875 C 293.878906 373.214844 302.671875 363.160156 305.5 359.167969 C 308.683594 354.921875 310.300781 350.476562 311.515625 345.726562 C 311.515625 345.320312 311.714844 344.714844 311.917969 343.855469 C 313.941406 336.78125 309.695312 331.578125 303.53125 339.054688 C 299.335938 344.261719 295.949219 350.324219 293.324219 356.285156 C 291.503906 360.53125 289.332031 366.039062 287.917969 371.445312 Z M 367.097656 327.890625 C 362.902344 328.699219 358.710938 333.902344 356.285156 337.386719 C 350.675781 344.765625 346.277344 353.40625 343.703125 362.148438 C 341.882812 367.605469 340.519531 373.417969 340.519531 378.824219 C 340.519531 380.238281 340.113281 385.492188 341.527344 386.503906 L 341.328125 386.503906 C 340.71875 386.402344 340.71875 387.007812 341.328125 386.503906 C 341.328125 386.503906 341.460938 386.554688 341.730469 386.65625 C 341.730469 386.65625 341.527344 386.503906 341.527344 386.503906 C 341.730469 386.300781 341.933594 386.050781 342.335938 385.796875 C 355.324219 372.152344 362.75 354.921875 372.148438 338.804688 C 371.949219 338.046875 371.949219 337.238281 372.148438 336.175781 C 373.363281 332.183594 372.554688 326.523438 367.148438 327.890625 Z M 417.324219 316.824219 C 424.902344 315.761719 424.902344 304.140625 417.324219 305.199219 C 409.746094 306.261719 409.894531 317.832031 417.324219 316.824219 Z M 467.957031 308.28125 C 463.761719 314.902344 457.75 322.53125 458.757812 330.363281 C 459.566406 337.4375 464.570312 342.746094 465.582031 349.820312 C 467.199219 359.773438 464.164062 372.40625 454.566406 379.378906 C 444.761719 386.148438 433.140625 387.007812 425.761719 379.378906 C 424.5 378.066406 423.539062 376.601562 422.78125 375.085938 C 420.558594 377.609375 418.285156 380.085938 415.960938 382.359375 C 409.339844 388.675781 396.355469 396.105469 391.351562 385.796875 C 386.753906 375.84375 391.148438 363.816406 394.535156 352.953125 C 397.515625 343.503906 400.953125 334.054688 404.539062 324.757812 C 407.523438 317.53125 418.738281 318.945312 415.757812 326.371094 C 413.332031 332.6875 410.957031 339.054688 408.734375 345.574219 C 405.550781 354.621094 400.953125 365.484375 400.75 374.730469 C 400.546875 384.988281 410.554688 372.757812 413.738281 368.917969 C 418.234375 363.511719 422.476562 357.703125 426.015625 351.585938 C 426.117188 350.878906 426.320312 350.121094 426.722656 349.3125 C 435.109375 332.941406 445.117188 313.132812 460.125 301.410156 C 464.722656 297.773438 471.542969 303.027344 467.90625 308.332031 Z M 451.535156 346.585938 C 449.714844 342.441406 447.945312 338.296875 447.339844 333.75 C 444.710938 338.144531 442.4375 342.542969 440.214844 346.886719 C 440.113281 347.546875 440.0625 348.152344 439.761719 348.859375 C 438.699219 351.285156 437.386719 353.710938 436.019531 356.136719 C 436.375 357.703125 436.019531 359.671875 434.554688 361.390625 C 427.328125 369.625 439.355469 375.539062 446.378906 371.75 C 456.789062 365.886719 455.171875 354.316406 451.582031 346.585938 Z M 639.605469 320.15625 C 632.179688 334.609375 620.808594 354.214844 604.992188 360.632812 C 598.777344 363.109375 590.390625 360.078125 589.179688 353.457031 C 588.167969 347.59375 589.984375 341.53125 591.804688 335.671875 C 594.382812 327.484375 597.414062 319.449219 600.394531 311.464844 C 601.609375 307.878906 602.972656 304.292969 603.78125 300.804688 C 604.183594 299.742188 604.589844 298.480469 604.792969 297.265625 C 599.386719 295.652344 592.765625 295.550781 586.398438 295.851562 C 584.78125 305.300781 582.203125 314.648438 579.171875 323.898438 C 574.574219 338.144531 569.371094 352.699219 560.375 365.535156 C 556.738281 370.585938 551.128906 367.300781 550.976562 362.503906 C 547.339844 365.230469 543.550781 367.554688 539.558594 369.222656 C 525.105469 375.386719 513.230469 370.183594 510.148438 356.386719 C 508.027344 359.21875 505.804688 361.945312 503.527344 364.472656 C 498.527344 369.980469 489.128906 380.085938 481.144531 378.015625 C 466.136719 374.125 473.714844 354.46875 477.355469 342.945312 C 483.164062 324.300781 489.53125 305.605469 496.152344 287.058594 L 483.972656 288.777344 C 476.394531 289.839844 476.394531 278.21875 483.972656 277.15625 L 500.597656 274.832031 C 504.386719 264.675781 507.976562 254.570312 512.019531 244.414062 C 514.59375 237.238281 525.8125 238.449219 523.035156 245.878906 C 519.648438 254.972656 516.414062 264.019531 513.027344 273.113281 L 520.050781 272.152344 C 527.429688 271.09375 527.429688 282.714844 520.050781 283.777344 L 508.632812 285.394531 C 503.429688 299.742188 498.628906 313.992188 493.828125 328.292969 C 491.25 336.277344 488.621094 344.007812 486.449219 352.144531 C 485.640625 355.074219 484.832031 357.953125 484.226562 360.835938 C 483.820312 362.300781 482.8125 368.820312 488.21875 364.472656 C 491.804688 361.542969 495.039062 358.308594 497.820312 354.71875 C 503.628906 347.496094 508.835938 339.964844 512.421875 331.679688 C 513.28125 328.898438 514.292969 326.121094 515.402344 323.441406 C 518.789062 314.953125 523.183594 304.339844 530.410156 297.925781 C 544.003906 285.394531 559.011719 291.910156 558.050781 307.070312 C 558.050781 307.878906 558.050781 308.484375 557.847656 309.292969 C 555.421875 320.410156 551.230469 331.023438 542.4375 339.257812 C 536.019531 345.171875 528.640625 350.628906 520.808594 350.324219 C 521.011719 353.304688 522.023438 355.933594 523.792969 358.105469 C 528.792969 364.421875 540.214844 356.996094 545.621094 352.648438 C 555.222656 344.917969 562.648438 335.0625 567.246094 323.996094 C 567.398438 323.644531 567.652344 323.390625 567.855469 323.089844 C 568.15625 322.078125 568.511719 321.015625 568.8125 319.957031 C 571.039062 312.222656 573.414062 304.292969 574.828125 296.308594 L 573.613281 296.460938 C 566.238281 296.460938 566.238281 284.886719 573.613281 284.835938 C 574.421875 284.734375 575.230469 284.835938 576.242188 284.683594 L 576.242188 281.703125 C 576.445312 274.277344 588.066406 272.457031 587.863281 280.085938 C 587.863281 281.503906 587.863281 283.070312 587.660156 284.535156 C 594.078125 284.433594 600.445312 284.734375 606.460938 285.695312 C 618.636719 287.363281 617.476562 295.953125 613.835938 306.667969 C 611.257812 314.042969 608.429688 321.421875 605.851562 328.796875 C 603.832031 334.660156 600.648438 341.734375 600.445312 347.746094 C 600.445312 354.367188 613.433594 340.925781 615.25 338.652344 C 620.65625 331.476562 625.457031 323.59375 629.652344 315.8125 C 633.238281 308.890625 643.246094 313.285156 639.65625 320.207031 Z M 527.175781 323.339844 C 525.359375 327.585938 523.183594 333.09375 521.769531 338.5 C 522.175781 338.449219 522.375 338.601562 522.578125 338.601562 C 527.785156 340.269531 536.574219 330.214844 539.40625 326.222656 C 542.589844 321.976562 544.207031 317.53125 545.417969 312.78125 C 545.417969 312.375 545.621094 311.769531 545.824219 310.910156 C 547.84375 303.835938 543.597656 298.632812 537.433594 306.109375 C 533.242188 311.316406 529.855469 317.378906 527.226562 323.339844 Z M 305.804688 413.234375 C 308.230469 405.90625 297.011719 404.492188 294.585938 411.820312 C 281.398438 450.070312 268.359375 488.324219 255.171875 526.625 C 252.949219 494.539062 250.574219 462.25 248.351562 430.160156 C 248.148438 429 247.746094 427.835938 247.136719 427.128906 C 245.722656 425.109375 242.742188 424.957031 240.316406 425.867188 C 239.105469 426.625 238.09375 427.585938 237.539062 428.644531 C 237.335938 429.050781 237.132812 429.304688 236.929688 429.707031 C 234.910156 433.195312 233.949219 437.742188 232.738281 441.277344 C 228.949219 451.992188 225.15625 462.753906 221.316406 473.515625 C 210.503906 503.632812 199.488281 533.800781 187.917969 563.863281 C 185.136719 571.039062 196.304688 572.503906 199.132812 565.28125 C 210.148438 536.730469 220.558594 508.027344 230.96875 479.378906 C 233.394531 472.253906 235.972656 465.078125 238.546875 457.902344 C 240.972656 490.191406 243.148438 522.683594 245.570312 554.972656 L 245.570312 555.175781 C 244.15625 561.792969 254.566406 562.703125 256.992188 555.78125 C 273.210938 508.28125 289.582031 460.785156 305.804688 413.234375 Z M 326.167969 456.941406 C 324.753906 456.742188 323.589844 456.941406 322.582031 457.449219 C 322.175781 457.296875 321.773438 457.347656 321.367188 457.449219 C 304.945312 459.167969 296.152344 479.378906 291.148438 492.921875 C 286.148438 506.414062 277.152344 540.722656 299.335938 540.167969 C 315.152344 539.761719 327.53125 520.609375 332.738281 507.472656 C 339.355469 490.949219 347.136719 461.640625 326.117188 456.992188 Z M 321.164062 506.867188 C 317.578125 514.953125 310.148438 526.828125 300.953125 528.492188 C 294.941406 529.554688 296.558594 515.507812 296.960938 512.425781 C 297.972656 505.90625 300.550781 499.339844 302.972656 492.972656 C 305.753906 485.191406 311.765625 470.132812 321.367188 468.96875 C 321.972656 468.867188 322.582031 468.816406 323.1875 468.515625 C 334.808594 471.089844 324.601562 498.730469 321.164062 506.816406 Z M 448.753906 404.695312 C 451.734375 397.46875 441.730469 393.074219 438.75 400.296875 C 430.359375 420.308594 409.644531 471.75 399.839844 491.355469 C 399.03125 487.058594 398.628906 482.511719 398.023438 478.972656 C 397.011719 472.507812 396.203125 466.242188 395.597656 459.722656 C 394.988281 454.214844 388.015625 453.808594 385.1875 457.195312 C 384.582031 457.699219 383.972656 458.558594 383.570312 459.417969 C 380.183594 466.492188 376.34375 473.617188 372.554688 480.589844 C 369.773438 485.796875 366.742188 491 363.761719 496.054688 C 363.15625 496.964844 362.75 497.621094 362.347656 498.226562 L 362.347656 497.011719 C 362.550781 489.585938 363.15625 482.308594 363.558594 474.832031 C 364.167969 464.320312 364.773438 453.859375 365.378906 443.148438 C 365.984375 435.671875 354.363281 437.285156 353.757812 444.765625 C 352.949219 457.902344 344.15625 515.152344 356.183594 516.46875 C 365.984375 517.679688 374.171875 499.945312 378.214844 492.972656 C 380.992188 488.171875 383.621094 483.421875 386.199219 478.621094 C 386.398438 480.1875 386.601562 481.957031 386.804688 483.523438 C 388.015625 491.554688 388.625 502.875 393.828125 509.140625 C 396.253906 512.222656 401.40625 512.070312 403.832031 507.726562 C 416.0625 484.179688 438.75 428.847656 448.753906 404.59375 Z M 448.753906 404.695312 "/></g></svg>