<svg xmlns="http://www.w3.org/2000/svg" xmlns:xlink="http://www.w3.org/1999/xlink" width="1080" zoomAndPan="magnify" viewBox="0 0 810 809.999993" height="1080" preserveAspectRatio="xMidYMid meet" version="1.2"><defs><clipPath id="c4ac988abe"><path d="M 212.191406 236.050781 L 597.691406 236.050781 L 597.691406 574 L 212.191406 574 Z M 212.191406 236.050781 "/></clipPath></defs><g id="b81ac8dc84"><path style=" stroke: currentColor;fill-rule:nonzero;fill: currentColor;fill-opacity:1;" d="M 536.292969 272.277344 C 543.015625 272.28125 549.058594 274.988281 553.464844 279.390625 C 557.871094 283.800781 560.578125 289.84375 560.582031 296.5625 C 560.578125 303.285156 557.871094 309.328125 553.464844 313.738281 C 549.058594 318.140625 543.015625 320.851562 536.292969 320.851562 C 529.570312 320.851562 523.527344 318.140625 519.121094 313.738281 C 514.71875 309.328125 512.007812 303.285156 512.007812 296.5625 C 512.007812 289.84375 514.71875 283.800781 519.121094 279.390625 C 523.527344 274.988281 529.570312 272.28125 536.292969 272.277344 Z M 503.15625 296.5625 C 503.15625 305.699219 506.871094 314.011719 512.863281 319.996094 C 518.84375 325.984375 527.15625 329.703125 536.292969 329.699219 C 545.433594 329.703125 553.742188 325.984375 559.726562 319.996094 C 565.710938 314.011719 569.429688 305.699219 569.429688 296.5625 C 569.429688 287.429688 565.710938 279.117188 559.726562 273.132812 C 553.742188 267.144531 545.433594 263.425781 536.292969 263.425781 C 527.15625 263.425781 518.84375 267.144531 512.863281 273.132812 C 506.871094 279.117188 503.15625 287.429688 503.15625 296.5625 "/><g clip-rule="nonzero" clip-path="url(#c4ac988abe)"><path style=" stroke: currentColor;fill-rule:nonzero;fill: currentColor;fill-opacity:1;" d="M 435.527344 337.234375 C 431.011719 337.234375 426.882812 339.078125 423.929688 342.039062 C 420.96875 344.992188 419.125 349.121094 419.125 353.636719 C 419.125 358.148438 420.96875 362.277344 423.929688 365.234375 C 426.882812 368.191406 431.011719 370.039062 435.527344 370.039062 L 461.710938 370.039062 L 461.710938 397.984375 L 245.503906 397.984375 C 244.148438 396.648438 242.628906 395.53125 240.996094 394.667969 C 238.980469 393.597656 236.800781 392.90625 234.5625 392.59375 L 234.5625 244.902344 L 461.710938 244.902344 L 461.710938 337.234375 Z M 468.636719 420.746094 C 472.839844 424.957031 475.425781 430.722656 475.429688 437.140625 C 475.425781 443.558594 472.839844 449.328125 468.636719 453.539062 C 464.429688 457.742188 458.65625 460.328125 452.242188 460.328125 C 445.824219 460.328125 440.054688 457.742188 435.84375 453.539062 C 431.640625 449.328125 429.054688 443.558594 429.054688 437.140625 C 429.054688 430.722656 431.640625 424.957031 435.84375 420.746094 C 440.054688 416.542969 445.824219 413.957031 452.242188 413.953125 C 458.65625 413.957031 464.429688 416.542969 468.636719 420.746094 Z M 345.847656 420.769531 C 344.550781 418.660156 343.015625 416.714844 341.277344 414.980469 C 337.453125 411.148438 332.625 408.300781 327.234375 406.832031 L 441.875 406.832031 C 437.195312 408.433594 432.996094 411.074219 429.585938 414.488281 C 427.710938 416.363281 426.074219 418.472656 424.707031 420.769531 Z M 335.019531 453.453125 C 330.882812 457.585938 325.214844 460.125 318.910156 460.128906 C 312.605469 460.125 306.9375 457.585938 302.800781 453.453125 C 298.671875 449.316406 296.132812 443.652344 296.128906 437.34375 C 296.132812 431.042969 298.671875 425.371094 302.800781 421.238281 C 306.9375 417.109375 312.605469 414.566406 318.910156 414.566406 C 325.214844 414.566406 330.882812 417.109375 335.019531 421.238281 C 339.148438 425.371094 341.691406 431.042969 341.691406 437.34375 C 341.691406 443.652344 339.148438 449.316406 335.019531 453.453125 Z M 260.941406 420.769531 C 257.890625 416.136719 254.855469 411.488281 251.820312 406.832031 L 310.589844 406.832031 C 305.199219 408.300781 300.371094 411.148438 296.542969 414.980469 C 294.804688 416.714844 293.273438 418.660156 291.972656 420.769531 Z M 271.585938 453.453125 C 273.859375 456.929688 276.011719 460.695312 278.492188 464.449219 C 280.972656 468.195312 283.800781 471.9375 287.484375 475.238281 C 290.617188 478.046875 294.125 480.140625 297.8125 481.613281 C 301.503906 483.09375 305.375 483.96875 309.308594 484.398438 C 312.898438 484.792969 316.355469 484.839844 319.652344 484.917969 C 322.953125 484.996094 326.097656 485.105469 329.074219 485.539062 C 334.429688 486.316406 339.546875 487.957031 344.246094 490.5 C 348.65625 492.886719 352.882812 495.972656 356.445312 499.578125 C 360.011719 503.183594 362.910156 507.300781 364.765625 511.757812 C 365.777344 514.179688 366.683594 516.980469 367.324219 519.804688 C 367.96875 522.628906 368.335938 525.476562 368.335938 527.957031 L 368.335938 564.964844 L 344.738281 564.992188 L 344.738281 542.179688 C 344.738281 539.734375 342.757812 537.753906 340.3125 537.753906 C 337.867188 537.753906 335.886719 539.734375 335.886719 542.179688 L 335.886719 565.003906 L 269.488281 565.085938 L 269.488281 496.550781 C 269.488281 496.289062 269.464844 496.054688 269.421875 495.800781 L 267.949219 487.285156 C 267.847656 486.707031 267.617188 486.117188 267.296875 485.625 L 222.992188 417.640625 C 221.820312 415.839844 221.273438 413.855469 221.269531 411.863281 C 221.269531 410.132812 221.695312 408.40625 222.507812 406.875 C 223.324219 405.339844 224.515625 403.992188 226.085938 402.96875 C 227.886719 401.800781 229.871094 401.25 231.859375 401.25 C 233.59375 401.246094 235.316406 401.675781 236.851562 402.488281 C 238.390625 403.304688 239.734375 404.492188 240.757812 406.0625 C 245.679688 413.613281 250.589844 421.191406 255.585938 428.734375 C 260.96875 436.867188 266.1875 445.179688 271.585938 453.453125 Z M 402.011719 529.109375 C 402.011719 523.074219 403.378906 517.34375 405.875 512.09375 C 409.621094 504.222656 415.929688 497.429688 423.960938 492.605469 C 431.992188 487.777344 441.722656 484.9375 452.242188 484.9375 C 466.265625 484.933594 478.890625 489.996094 487.949219 498.050781 C 492.476562 502.078125 496.109375 506.84375 498.605469 512.09375 C 501.101562 517.34375 502.46875 523.074219 502.46875 529.109375 L 502.46875 564.792969 L 478.386719 564.824219 L 478.386719 543.542969 C 478.386719 541.097656 476.40625 539.117188 473.964844 539.117188 C 471.519531 539.117188 469.539062 541.097656 469.539062 543.542969 L 469.539062 564.835938 L 434.945312 564.878906 L 434.945312 543.542969 C 434.945312 541.097656 432.960938 539.117188 430.519531 539.117188 C 428.074219 539.117188 426.09375 541.097656 426.09375 543.542969 L 426.09375 564.890625 L 402.011719 564.921875 Z M 570.347656 346.496094 C 560.585938 340.632812 548.859375 337.234375 536.292969 337.234375 L 470.5625 337.234375 L 470.5625 240.480469 C 470.5625 239.3125 470.089844 238.175781 469.265625 237.351562 C 468.441406 236.527344 467.304688 236.054688 466.136719 236.054688 L 230.136719 236.054688 C 228.972656 236.054688 227.832031 236.527344 227.007812 237.351562 C 226.183594 238.175781 225.710938 239.3125 225.710938 240.480469 L 225.710938 393.410156 C 224.171875 393.925781 222.667969 394.632812 221.25 395.558594 C 218.402344 397.410156 216.179688 399.914062 214.691406 402.734375 C 213.195312 405.550781 212.421875 408.6875 212.421875 411.863281 C 212.417969 415.503906 213.449219 419.207031 215.578125 422.476562 L 259.386719 489.691406 L 260.636719 496.933594 L 260.636719 565.394531 C 260.636719 566.144531 260.839844 566.839844 261.171875 567.460938 C 260.84375 568.078125 260.640625 568.773438 260.644531 569.519531 C 260.644531 571.964844 262.628906 573.941406 265.074219 573.941406 L 515.71875 573.628906 C 518.160156 573.625 520.140625 571.640625 520.136719 569.199219 C 520.132812 566.753906 518.148438 564.773438 515.703125 564.78125 L 511.320312 564.785156 L 511.320312 529.109375 C 511.320312 521.726562 509.632812 514.667969 506.59375 508.289062 C 502.039062 498.71875 494.492188 490.675781 485.078125 485.019531 C 475.664062 479.363281 464.359375 476.085938 452.242188 476.085938 C 436.082031 476.089844 421.378906 481.90625 410.65625 491.441406 C 405.289062 496.207031 400.921875 501.910156 397.886719 508.289062 C 394.847656 514.667969 393.160156 521.726562 393.160156 529.109375 L 393.160156 564.929688 L 377.183594 564.953125 L 377.183594 527.957031 C 377.183594 524.625 376.710938 521.191406 375.957031 517.847656 C 375.195312 514.503906 374.148438 511.265625 372.933594 508.351562 C 370.5625 502.667969 366.980469 497.648438 362.738281 493.359375 C 358.496094 489.066406 353.585938 485.496094 348.460938 482.71875 C 342.789062 479.648438 336.65625 477.699219 330.347656 476.78125 C 326.71875 476.257812 323.210938 476.152344 319.863281 476.070312 C 316.507812 475.996094 313.308594 475.941406 310.28125 475.605469 C 307 475.242188 303.921875 474.53125 301.105469 473.402344 C 298.285156 472.269531 295.71875 470.726562 293.386719 468.644531 C 290.519531 466.078125 288.136719 462.988281 285.871094 459.5625 C 283.601562 456.140625 281.457031 452.386719 278.996094 448.617188 C 274.898438 442.332031 270.863281 435.96875 266.738281 429.617188 L 288.238281 429.617188 C 287.613281 432.09375 287.28125 434.683594 287.28125 437.34375 C 287.277344 446.066406 290.828125 454 296.542969 459.714844 C 302.253906 465.429688 310.191406 468.980469 318.910156 468.976562 C 327.632812 468.980469 335.566406 465.429688 341.277344 459.714844 C 346.996094 454 350.542969 446.066406 350.542969 437.34375 C 350.542969 434.683594 350.207031 432.09375 349.585938 429.617188 L 421.101562 429.617188 C 420.519531 432.035156 420.203125 434.554688 420.203125 437.140625 C 420.203125 445.976562 423.796875 454.011719 429.585938 459.796875 C 435.371094 465.585938 443.410156 469.183594 452.242188 469.179688 C 461.074219 469.183594 469.113281 465.585938 474.894531 459.796875 C 480.6875 454.011719 484.277344 445.976562 484.277344 437.140625 C 484.277344 428.3125 480.6875 420.273438 474.894531 414.488281 C 471.484375 411.074219 467.285156 408.433594 462.605469 406.832031 L 466.136719 406.832031 C 467.304688 406.832031 468.441406 406.359375 469.265625 405.535156 C 470.089844 404.710938 470.5625 403.574219 470.5625 402.40625 L 470.5625 370.039062 L 495.6875 370.039062 L 495.6875 431.316406 C 495.6875 433.761719 497.671875 435.742188 500.117188 435.742188 C 502.558594 435.742188 504.542969 433.761719 504.542969 431.316406 L 504.542969 366.433594 C 504.589844 366.164062 504.621094 365.890625 504.621094 365.609375 C 504.621094 363.167969 502.640625 361.1875 500.199219 361.1875 L 435.527344 361.1875 C 433.429688 361.1875 431.566406 360.347656 430.1875 358.972656 C 428.8125 357.59375 427.976562 355.734375 427.976562 353.636719 C 427.976562 351.539062 428.8125 349.675781 430.1875 348.296875 C 431.566406 346.921875 433.429688 346.085938 435.527344 346.085938 L 536.292969 346.085938 C 550.921875 346.082031 564.089844 351.363281 573.539062 359.765625 C 578.261719 363.96875 582.054688 368.941406 584.664062 374.421875 C 587.269531 379.90625 588.695312 385.890625 588.699219 392.191406 L 588.699219 447.589844 C 588.695312 449.6875 587.859375 451.546875 586.488281 452.929688 C 585.105469 454.300781 583.25 455.136719 581.144531 455.140625 C 579.050781 455.136719 577.1875 454.300781 575.808594 452.929688 C 574.433594 451.546875 573.597656 449.6875 573.597656 447.589844 L 573.597656 407.199219 C 573.597656 404.757812 571.613281 402.777344 569.171875 402.777344 C 566.726562 402.777344 564.746094 404.757812 564.746094 407.199219 L 564.746094 447.589844 C 564.746094 452.105469 566.589844 456.230469 569.550781 459.1875 C 572.503906 462.148438 576.632812 463.988281 581.144531 463.988281 C 585.660156 463.988281 589.789062 462.148438 592.742188 459.1875 C 595.703125 456.230469 597.550781 452.105469 597.550781 447.589844 L 597.550781 392.191406 C 597.550781 384.539062 595.800781 377.230469 592.652344 370.621094 C 587.933594 360.703125 580.105469 352.359375 570.347656 346.496094 "/></g><path style=" stroke: currentColor;fill-rule:nonzero;fill: currentColor;fill-opacity:1;" d="M 375.269531 318.632812 C 375.007812 320.605469 374.519531 322.535156 373.8125 324.40625 L 373.8125 324.402344 C 373.542969 325.113281 373.273438 325.785156 372.992188 326.398438 L 372.988281 326.402344 C 372.519531 327.441406 371.996094 328.339844 371.402344 329.101562 L 371.335938 329.183594 L 371.339844 329.179688 C 370.621094 330.097656 369.621094 331.140625 368.542969 332.480469 L 368.539062 332.484375 C 367.304688 334.03125 366.144531 335.644531 365.0625 337.308594 C 363.710938 339.390625 362.464844 341.566406 361.363281 343.835938 C 360.09375 346.441406 359.019531 349.148438 358.152344 351.929688 L 358.152344 351.925781 C 357.617188 353.648438 357.183594 355.40625 356.828125 357.179688 L 354.476562 357.179688 L 354.476562 327.28125 C 354.476562 324.835938 352.492188 322.855469 350.050781 322.855469 C 347.605469 322.855469 345.625 324.835938 345.625 327.28125 L 345.625 357.179688 L 341.726562 357.179688 C 340.511719 351.117188 338.234375 345.984375 335.84375 341.835938 C 334.289062 339.132812 332.6875 336.824219 331.304688 334.921875 C 329.929688 333.03125 328.757812 331.503906 328.160156 330.574219 L 328.050781 330.410156 C 327.769531 330.023438 327.492188 329.605469 327.210938 329.15625 L 327.214844 329.164062 C 324.652344 325.109375 323.167969 320.363281 323.167969 315.234375 C 323.167969 308 326.089844 301.488281 330.828125 296.738281 C 335.578125 291.996094 342.089844 289.078125 349.328125 289.078125 C 356.566406 289.078125 363.078125 291.996094 367.824219 296.738281 C 372.566406 301.488281 375.484375 308 375.488281 315.234375 C 375.488281 316.378906 375.414062 317.523438 375.269531 318.632812 Z M 352.355469 384.089844 C 351.566406 384.871094 350.523438 385.34375 349.328125 385.34375 C 348.128906 385.34375 347.085938 384.871094 346.296875 384.089844 C 345.515625 383.300781 345.042969 382.253906 345.042969 381.058594 C 345.042969 380.886719 345.074219 380.726562 345.089844 380.558594 L 353.5625 380.558594 C 353.582031 380.726562 353.613281 380.886719 353.613281 381.058594 C 353.609375 382.253906 353.140625 383.300781 352.355469 384.089844 Z M 350.050781 366.027344 L 356.429688 366.027344 L 356.429688 371.710938 L 342.378906 371.710938 L 342.378906 366.027344 Z M 349.328125 280.230469 C 339.675781 280.226562 330.894531 284.152344 324.570312 290.480469 C 318.242188 296.800781 314.316406 305.582031 314.316406 315.234375 C 314.316406 322.09375 316.324219 328.5 319.734375 333.890625 L 319.738281 333.898438 C 320.046875 334.386719 320.382812 334.886719 320.734375 335.390625 C 320.769531 335.441406 320.804688 335.492188 320.839844 335.542969 C 320.839844 335.546875 320.84375 335.550781 320.847656 335.554688 C 321.773438 336.957031 322.898438 338.402344 324.144531 340.125 C 326.082031 342.789062 328.28125 346.039062 330.085938 349.925781 C 331.703125 353.40625 333 357.382812 333.527344 361.925781 L 333.527344 376.136719 C 333.527344 377.300781 334 378.4375 334.824219 379.265625 C 335.230469 379.667969 335.710938 379.988281 336.234375 380.207031 C 336.21875 380.488281 336.191406 380.769531 336.191406 381.058594 C 336.191406 384.667969 337.667969 387.984375 340.039062 390.34375 C 342.402344 392.714844 345.714844 394.195312 349.328125 394.191406 C 352.941406 394.195312 356.253906 392.714844 358.613281 390.34375 C 360.984375 387.984375 362.464844 384.667969 362.460938 381.058594 C 362.460938 380.785156 362.4375 380.523438 362.421875 380.257812 C 363 380.039062 363.539062 379.707031 363.980469 379.265625 C 364.804688 378.4375 365.277344 377.300781 365.277344 376.136719 L 365.277344 361.605469 C 365.277344 361.308594 365.246094 361.011719 365.183594 360.722656 C 365.503906 358.636719 365.976562 356.570312 366.605469 354.554688 L 366.605469 354.550781 C 367.332031 352.210938 368.242188 349.921875 369.320312 347.703125 C 370.25 345.796875 371.3125 343.933594 372.488281 342.121094 C 373.40625 340.707031 374.402344 339.328125 375.457031 338.003906 C 376.191406 337.074219 377.203125 336.023438 378.28125 334.667969 L 378.285156 334.664062 L 378.359375 334.570312 L 378.371094 334.554688 C 379.503906 333.109375 380.359375 331.578125 381.042969 330.070312 C 381.441406 329.199219 381.777344 328.351562 382.085938 327.542969 L 382.085938 327.539062 C 383.03125 325.042969 383.691406 322.449219 384.042969 319.792969 L 384.042969 319.789062 C 384.242188 318.269531 384.335938 316.742188 384.335938 315.234375 C 384.339844 305.582031 380.410156 296.800781 374.082031 290.480469 C 367.761719 284.152344 358.980469 280.226562 349.328125 280.230469 "/><path style=" stroke: currentColor;fill-rule:nonzero;fill: currentColor;fill-opacity:1;" d="M 350.050781 272.171875 C 352.492188 272.171875 354.476562 270.191406 354.476562 267.746094 L 354.476562 253.117188 C 354.476562 250.671875 352.492188 248.691406 350.050781 248.691406 C 347.605469 248.691406 345.625 250.671875 345.625 253.117188 L 345.625 267.746094 C 345.625 270.191406 347.605469 272.171875 350.050781 272.171875 "/><path style=" stroke: currentColor;fill-rule:nonzero;fill: currentColor;fill-opacity:1;" d="M 393.273438 268.027344 L 382.929688 278.371094 C 381.199219 280.101562 381.199219 282.902344 382.929688 284.628906 C 384.65625 286.355469 387.457031 286.355469 389.183594 284.628906 L 399.535156 274.285156 C 401.261719 272.554688 401.261719 269.753906 399.535156 268.027344 C 397.804688 266.296875 395.003906 266.296875 393.273438 268.027344 "/><path style=" stroke: currentColor;fill-rule:nonzero;fill: currentColor;fill-opacity:1;" d="M 315.726562 279.480469 L 305.382812 269.132812 C 303.652344 267.402344 300.851562 267.402344 299.125 269.132812 C 297.394531 270.859375 297.394531 273.660156 299.125 275.390625 L 309.472656 285.734375 C 311.199219 287.464844 314 287.464844 315.726562 285.734375 C 317.457031 284.007812 317.457031 281.210938 315.726562 279.480469 "/></g></svg>