<svg xmlns="http://www.w3.org/2000/svg" xmlns:xlink="http://www.w3.org/1999/xlink" width="1080" zoomAndPan="magnify" viewBox="0 0 810 809.999993" height="1080" preserveAspectRatio="xMidYMid meet" version="1.2"><defs><clipPath id="50190169f4"><path d="M 207 330 L 461 330 L 461 553.382812 L 207 553.382812 Z M 207 330 "/></clipPath><clipPath id="0fc4c77a60"><path d="M 349 256.382812 L 602.84375 256.382812 L 602.84375 479 L 349 479 Z M 349 256.382812 "/></clipPath></defs><g id="b78f6bf8f5"><path style=" stroke:none;fill-rule:nonzero;fill:#d9d9d9;fill-opacity:1;" d="M 262.867188 457.214844 C 262.867188 460.613281 265.648438 463.394531 269.046875 463.394531 L 398.816406 463.394531 C 402.214844 463.394531 404.996094 460.613281 404.996094 457.214844 C 404.996094 453.816406 402.214844 451.035156 398.816406 451.035156 L 269.046875 451.035156 C 265.648438 451.035156 262.867188 453.816406 262.867188 457.214844 Z M 262.867188 457.214844 "/><path style=" stroke:none;fill-rule:nonzero;fill:#d9d9d9;fill-opacity:1;" d="M 337.019531 376.882812 L 269.046875 376.882812 C 265.648438 376.882812 262.867188 379.664062 262.867188 383.0625 C 262.867188 386.460938 265.648438 389.242188 269.046875 389.242188 L 337.019531 389.242188 Z M 337.019531 376.882812 "/><g clip-rule="nonzero" clip-path="url(#50190169f4)"><path style=" stroke:none;fill-rule:nonzero;fill:#d9d9d9;fill-opacity:1;" d="M 448.25 485.023438 C 448.25 491.203125 444.542969 497.382812 437.128906 497.382812 L 380.277344 497.382812 C 376.878906 497.382812 374.097656 500.164062 374.097656 503.5625 L 374.097656 535.078125 L 320.335938 498.617188 C 319.410156 498 318.171875 497.691406 316.9375 497.691406 L 230.730469 497.691406 C 225.480469 497.382812 219.609375 492.128906 219.609375 485.023438 L 219.609375 354.945312 C 219.609375 348.148438 225.171875 342.894531 231.96875 342.894531 L 337.019531 342.894531 L 337.019531 330.535156 L 231.96875 330.535156 C 218.375 330.535156 207.25 341.351562 207.25 354.945312 L 207.25 485.023438 C 207.25 498.308594 217.753906 509.433594 230.730469 509.742188 L 314.773438 509.742188 C 314.773438 509.742188 376.570312 551.761719 376.878906 552.070312 C 378.730469 553.308594 381.203125 553.617188 383.367188 552.378906 C 385.527344 551.453125 386.765625 549.289062 386.765625 546.820312 L 386.765625 509.742188 L 437.4375 509.742188 C 450.722656 509.742188 460.917969 499.238281 460.917969 485.023438 L 460.917969 474.210938 L 448.558594 482.550781 L 448.558594 485.023438 Z M 448.25 485.023438 "/></g><g clip-rule="nonzero" clip-path="url(#0fc4c77a60)"><path style=" stroke:none;fill-rule:nonzero;fill:#d9d9d9;fill-opacity:1;" d="M 578.019531 256.382812 L 374.097656 256.382812 C 360.503906 256.382812 349.378906 267.195312 349.378906 280.789062 L 349.378906 410.871094 C 349.378906 425.082031 359.574219 435.585938 372.859375 435.585938 L 423.53125 435.585938 L 423.53125 472.664062 C 423.53125 474.828125 424.769531 476.992188 426.933594 478.226562 C 428.785156 479.152344 431.257812 479.152344 433.421875 477.917969 L 495.214844 435.585938 L 579.566406 435.585938 C 592.234375 435.277344 602.738281 424.15625 602.738281 410.871094 L 602.738281 280.789062 C 602.738281 267.195312 591.617188 256.382812 578.019531 256.382812 Z M 590.378906 410.871094 C 590.378906 417.667969 584.507812 423.226562 579.257812 423.226562 L 493.363281 423.226562 C 492.125 423.226562 490.890625 423.539062 489.960938 424.15625 L 435.890625 460.921875 L 435.890625 429.40625 C 435.890625 426.007812 433.109375 423.226562 429.710938 423.226562 L 372.859375 423.226562 C 365.753906 423.226562 361.738281 417.050781 361.738281 410.871094 L 361.738281 280.789062 C 361.738281 274.300781 367.300781 268.742188 374.097656 268.742188 L 578.019531 268.742188 C 584.816406 268.742188 590.378906 273.992188 590.378906 280.789062 Z M 590.378906 410.871094 "/></g><path style=" stroke:none;fill-rule:nonzero;fill:#d9d9d9;fill-opacity:1;" d="M 479.148438 293.769531 C 471.113281 292.839844 463.390625 295.3125 457.210938 300.566406 C 451.339844 305.816406 447.941406 313.234375 447.941406 320.957031 C 447.941406 324.355469 450.722656 327.136719 454.121094 327.136719 C 457.519531 327.136719 460.300781 324.355469 460.300781 320.957031 C 460.300781 316.632812 462.15625 312.617188 465.246094 309.835938 C 468.644531 306.746094 472.96875 305.507812 477.292969 305.816406 C 484.710938 306.746094 489.960938 311.996094 490.890625 319.105469 C 491.199219 322.503906 490.582031 325.902344 488.726562 328.992188 C 487.183594 331.152344 485.019531 333.316406 482.546875 335.480469 C 481.003906 337.023438 479.148438 338.570312 477.605469 340.421875 C 472.351562 346.292969 469.570312 353.710938 469.570312 362.050781 L 469.570312 373.792969 C 469.570312 377.191406 472.351562 379.972656 475.75 379.972656 C 479.148438 379.972656 481.929688 377.191406 481.929688 373.792969 L 481.929688 362.050781 C 481.929688 356.796875 483.472656 352.472656 486.871094 348.765625 C 488.109375 347.53125 489.652344 345.984375 491.199219 344.75 C 493.980469 341.96875 497.070312 339.1875 499.539062 335.789062 C 502.941406 330.535156 504.175781 324.355469 503.558594 318.175781 C 502.320312 304.890625 492.125 295.003906 479.148438 293.769531 Z M 479.148438 293.769531 "/><path style=" stroke:none;fill-rule:nonzero;fill:#d9d9d9;fill-opacity:1;" d="M 482.238281 398.511719 C 482.238281 398.917969 482.199219 399.316406 482.121094 399.714844 C 482.039062 400.113281 481.921875 400.5 481.769531 400.875 C 481.613281 401.25 481.421875 401.605469 481.195312 401.945312 C 480.972656 402.28125 480.714844 402.59375 480.429688 402.878906 C 480.140625 403.167969 479.828125 403.421875 479.492188 403.648438 C 479.15625 403.875 478.796875 404.0625 478.421875 404.21875 C 478.046875 404.375 477.664062 404.492188 477.265625 404.570312 C 476.867188 404.648438 476.464844 404.691406 476.058594 404.691406 C 475.652344 404.691406 475.25 404.648438 474.851562 404.570312 C 474.457031 404.492188 474.070312 404.375 473.695312 404.21875 C 473.320312 404.0625 472.964844 403.875 472.625 403.648438 C 472.289062 403.421875 471.976562 403.167969 471.6875 402.878906 C 471.402344 402.59375 471.144531 402.28125 470.921875 401.945312 C 470.695312 401.605469 470.503906 401.25 470.351562 400.875 C 470.195312 400.5 470.078125 400.113281 470 399.714844 C 469.917969 399.316406 469.878906 398.917969 469.878906 398.511719 C 469.878906 398.105469 469.917969 397.703125 470 397.304688 C 470.078125 396.90625 470.195312 396.519531 470.351562 396.144531 C 470.503906 395.769531 470.695312 395.414062 470.921875 395.078125 C 471.144531 394.738281 471.402344 394.429688 471.6875 394.140625 C 471.976562 393.855469 472.289062 393.597656 472.625 393.371094 C 472.964844 393.148438 473.320312 392.957031 473.695312 392.800781 C 474.070312 392.644531 474.457031 392.527344 474.851562 392.449219 C 475.25 392.371094 475.652344 392.332031 476.058594 392.332031 C 476.464844 392.332031 476.867188 392.371094 477.265625 392.449219 C 477.664062 392.527344 478.046875 392.644531 478.421875 392.800781 C 478.796875 392.957031 479.15625 393.148438 479.492188 393.371094 C 479.828125 393.597656 480.140625 393.855469 480.429688 394.140625 C 480.714844 394.429688 480.972656 394.738281 481.195312 395.078125 C 481.421875 395.414062 481.613281 395.769531 481.769531 396.144531 C 481.921875 396.519531 482.039062 396.90625 482.121094 397.304688 C 482.199219 397.703125 482.238281 398.105469 482.238281 398.511719 Z M 482.238281 398.511719 "/><path style=" stroke:none;fill-rule:nonzero;fill:#d9d9d9;fill-opacity:1;" d="M 337.019531 401.601562 L 269.046875 401.601562 C 265.648438 401.601562 262.867188 404.382812 262.867188 407.78125 C 262.867188 411.179688 265.648438 413.960938 269.046875 413.960938 L 337.019531 413.960938 C 337.019531 413.03125 337.019531 401.601562 337.019531 401.601562 Z M 337.019531 401.601562 "/><path style=" stroke:none;fill-rule:nonzero;fill:#d9d9d9;fill-opacity:1;" d="M 269.046875 426.316406 C 265.648438 426.316406 262.867188 429.097656 262.867188 432.496094 C 262.867188 435.898438 265.648438 438.675781 269.046875 438.675781 L 349.070312 438.675781 C 345.363281 435.277344 342.273438 430.953125 340.417969 426.316406 Z M 269.046875 426.316406 "/></g></svg>