<svg xmlns="http://www.w3.org/2000/svg" xmlns:xlink="http://www.w3.org/1999/xlink" width="1080" zoomAndPan="magnify" viewBox="0 0 810 809.999993" height="1080" preserveAspectRatio="xMidYMid meet" version="1.2"><defs><clipPath id="d77ee2b3da"><path d="M 285.414062 243 L 524.664062 243 L 524.664062 567 L 285.414062 567 Z M 285.414062 243 "/></clipPath></defs><g id="ea0fd69e5c"><g clip-rule="nonzero" clip-path="url(#d77ee2b3da)"><path style=" stroke:none;fill-rule:evenodd;fill:#6590b4;fill-opacity:1;" d="M 338.246094 461.53125 L 305.257812 534.96875 C 304.628906 536.371094 304.8125 538.007812 305.742188 539.234375 C 306.667969 540.460938 308.191406 541.085938 309.710938 540.863281 L 344.179688 535.804688 C 344.179688 535.804688 363.292969 564.929688 363.292969 564.929688 C 364.136719 566.214844 365.613281 566.941406 367.148438 566.816406 C 368.683594 566.695312 370.027344 565.75 370.65625 564.34375 L 404.964844 487.972656 L 439.273438 564.34375 C 439.902344 565.75 441.246094 566.695312 442.78125 566.816406 C 444.316406 566.941406 445.792969 566.214844 446.636719 564.929688 L 465.75 535.804688 C 465.75 535.804688 500.21875 540.863281 500.21875 540.863281 C 501.738281 541.085938 503.261719 540.460938 504.1875 539.234375 C 505.117188 538.007812 505.300781 536.371094 504.671875 534.96875 L 471.683594 461.53125 C 503.496094 440.058594 524.433594 403.671875 524.433594 362.4375 C 524.433594 296.5 470.902344 242.964844 404.964844 242.964844 C 339.027344 242.964844 285.496094 296.5 285.496094 362.4375 C 285.496094 403.671875 306.433594 440.058594 338.246094 461.53125 Z M 464.46875 466.035156 C 448.695312 475.121094 430.648438 480.710938 411.398438 481.734375 L 443.808594 553.882812 L 460.179688 528.9375 C 461.078125 527.566406 462.691406 526.84375 464.3125 527.078125 C 464.3125 527.078125 493.835938 531.410156 493.835938 531.410156 Z M 345.460938 466.035156 L 316.09375 531.410156 L 345.617188 527.078125 C 347.238281 526.84375 348.851562 527.566406 349.75 528.9375 C 349.75 528.9375 366.121094 553.882812 366.121094 553.882812 L 398.53125 481.734375 C 379.28125 480.710938 361.234375 475.125 345.460938 466.035156 Z M 404.964844 251.390625 C 466.25 251.390625 516.007812 301.148438 516.007812 362.4375 C 516.007812 423.722656 466.25 473.480469 404.964844 473.480469 C 343.679688 473.480469 293.921875 423.722656 293.921875 362.4375 C 293.921875 301.148438 343.679688 251.390625 404.964844 251.390625 Z M 404.964844 263.066406 C 350.121094 263.066406 305.597656 307.59375 305.597656 362.4375 C 305.597656 417.277344 350.121094 461.804688 404.964844 461.804688 C 459.808594 461.804688 504.332031 417.277344 504.332031 362.4375 C 504.332031 307.59375 459.808594 263.066406 404.964844 263.066406 Z M 404.964844 271.492188 C 455.15625 271.492188 495.90625 312.242188 495.90625 362.4375 C 495.90625 412.628906 455.15625 453.378906 404.964844 453.378906 C 354.773438 453.378906 314.023438 412.628906 314.023438 362.4375 C 314.023438 312.242188 354.773438 271.492188 404.964844 271.492188 Z M 408.796875 293.242188 C 408.109375 291.742188 406.613281 290.78125 404.964844 290.78125 C 403.316406 290.78125 401.820312 291.742188 401.132812 293.242188 L 383.230469 332.40625 C 383.230469 332.40625 340.449219 337.332031 340.449219 337.332031 C 338.8125 337.519531 337.433594 338.648438 336.925781 340.214844 C 336.414062 341.785156 336.867188 343.503906 338.082031 344.621094 L 369.796875 373.75 C 369.796875 373.75 361.261719 415.957031 361.261719 415.957031 C 360.933594 417.574219 361.582031 419.230469 362.914062 420.199219 C 364.25 421.167969 366.023438 421.269531 367.460938 420.460938 L 404.964844 399.300781 C 404.964844 399.300781 442.46875 420.460938 442.46875 420.460938 C 443.90625 421.269531 445.679688 421.167969 447.015625 420.199219 C 448.347656 419.230469 448.996094 417.574219 448.667969 415.957031 L 440.132812 373.75 C 440.132812 373.75 471.847656 344.621094 471.847656 344.621094 C 473.0625 343.503906 473.515625 341.785156 473.003906 340.214844 C 472.496094 338.648438 471.117188 337.519531 469.480469 337.332031 L 426.699219 332.40625 C 426.699219 332.40625 408.796875 293.242188 408.796875 293.242188 Z M 404.964844 305.125 L 420.023438 338.070312 C 420.636719 339.414062 421.910156 340.335938 423.375 340.507812 L 459.363281 344.648438 C 459.363281 344.648438 432.683594 369.152344 432.683594 369.152344 C 431.597656 370.148438 431.109375 371.644531 431.402344 373.089844 L 438.582031 408.59375 C 438.582031 408.59375 407.035156 390.792969 407.035156 390.792969 C 405.75 390.070312 404.179688 390.070312 402.894531 390.792969 L 371.347656 408.59375 C 371.347656 408.59375 378.527344 373.089844 378.527344 373.089844 C 378.820312 371.644531 378.332031 370.148438 377.246094 369.152344 L 350.566406 344.648438 C 350.566406 344.648438 386.554688 340.507812 386.554688 340.507812 C 388.019531 340.335938 389.292969 339.414062 389.90625 338.070312 Z M 404.964844 305.125 "/></g></g></svg>