<svg xmlns="http://www.w3.org/2000/svg" xmlns:xlink="http://www.w3.org/1999/xlink" width="1080" zoomAndPan="magnify" viewBox="0 0 810 809.999993" height="1080" preserveAspectRatio="xMidYMid meet" version="1.2"><defs><clipPath id="d041c70979"><path d="M 233.417969 313 L 339 313 L 339 486 L 233.417969 486 Z M 233.417969 313 "/></clipPath><clipPath id="6b072f6168"><path d="M 471 313 L 576.917969 313 L 576.917969 486 L 471 486 Z M 471 313 "/></clipPath></defs><g id="12404768c3"><g clip-rule="nonzero" clip-path="url(#d041c70979)"><path style=" stroke: currentColor;fill-rule:nonzero;fill: #d9d9d9;fill-opacity:1;" d="M 334.148438 458.886719 L 323.800781 449.230469 L 270.691406 399.507812 L 323.800781 349.816406 L 334.148438 340.160156 C 340.234375 334.464844 340.566406 324.867188 334.867188 318.78125 C 329.171875 312.691406 319.574219 312.363281 313.488281 318.058594 L 238.214844 388.472656 C 235.15625 391.320312 233.417969 395.339844 233.417969 399.507812 C 233.417969 403.707031 235.15625 407.695312 238.214844 410.542969 L 313.488281 480.957031 C 316.394531 483.6875 320.113281 485.035156 323.800781 485.035156 C 327.851562 485.035156 331.871094 483.417969 334.839844 480.238281 C 340.566406 474.152344 340.234375 464.585938 334.148438 458.886719 Z M 334.148438 458.886719 "/></g><g clip-rule="nonzero" clip-path="url(#6b072f6168)"><path style=" stroke: currentColor;fill-rule:nonzero;fill: currentColor;fill-opacity:1;" d="M 571.777344 388.472656 L 534.144531 353.265625 L 496.507812 318.058594 C 490.417969 312.332031 480.824219 312.660156 475.125 318.75 C 469.425781 324.835938 469.726562 334.433594 475.84375 340.132812 L 486.191406 349.789062 L 513.480469 375.339844 L 539.300781 399.507812 L 486.160156 449.199219 L 475.816406 458.855469 C 469.726562 464.554688 469.398438 474.152344 475.09375 480.238281 C 478.0625 483.417969 482.113281 485.035156 486.132812 485.035156 C 489.820312 485.035156 493.539062 483.6875 496.476562 480.957031 L 571.75 410.542969 C 574.808594 407.695312 576.546875 403.675781 576.546875 399.507812 C 576.578125 395.308594 574.835938 391.320312 571.777344 388.472656 Z M 571.777344 388.472656 "/></g><path style=" stroke: currentColor;fill-rule:nonzero;fill: currentColor;fill-opacity:1;" d="M 442.585938 303.09375 C 434.761719 300.1875 426.035156 304.175781 423.125 312 L 357.148438 489.382812 C 354.242188 497.210938 358.230469 505.9375 366.054688 508.847656 C 367.796875 509.507812 369.566406 509.808594 371.335938 509.808594 C 377.480469 509.808594 383.238281 506.027344 385.519531 499.941406 L 451.496094 322.527344 C 454.402344 314.699219 450.445312 306.003906 442.585938 303.09375 Z M 442.585938 303.09375 "/></g></svg>